<svg width="61" height="61" viewBox="0 0 61 61" fill="none" xmlns="http://www.w3.org/2000/svg">
<path fill-rule="evenodd" clip-rule="evenodd" d="M9.66504 12.1501L11.54 10.2751H26.54L28.415 12.1501V27.1501L26.54 29.0251H11.54L9.66504 27.1501V12.1501ZM13.415 14.0251V25.2751H24.665V14.0251H13.415ZM34.04 10.2751L32.165 12.1501V27.1501L34.04 29.0251H49.04L50.915 27.1501V12.1501L49.04 10.2751H34.04ZM35.915 25.2751V14.0251H47.165V25.2751H35.915ZM43.415 51.5251H39.665V44.0251H32.165V40.2751H39.665V32.7751H43.415V40.2751H50.915V44.0251H43.415V51.5251ZM11.54 32.7751L9.66504 34.6501V49.6501L11.54 51.5251H26.54L28.415 49.6501V34.6501L26.54 32.7751H11.54ZM13.415 47.7751V36.5251H24.665V47.7751H13.415Z" fill="#092557"/>
</svg>
