<svg width="24" height="24" viewBox="0 0 24 24" fill="none" xmlns="http://www.w3.org/2000/svg">
<path d="M22.1538 4.38469C22.1538 4.01546 21.8307 3.69238 21.4615 3.69238H2.53844C2.16921 3.69238 1.84613 4.01546 1.84613 4.38469V5.76931C1.84613 6.13854 2.16921 6.46161 2.53844 6.46161H21.4615C21.8307 6.46161 22.1538 6.13854 22.1538 5.76931V4.38469Z" fill="#071C43"/>
<path d="M22.1538 18.2309C22.1538 17.8617 21.8307 17.5386 21.4615 17.5386H2.53844C2.16921 17.5386 1.84613 17.8617 1.84613 18.2309V19.6155C1.84613 19.9847 2.16921 20.3078 2.53844 20.3078H21.4615C21.8307 20.3078 22.1538 19.9847 22.1538 19.6155V18.2309Z" fill="#071C43"/>
<path d="M15.9231 13.3845C16.2923 13.3845 16.6154 13.0614 16.6154 12.6922V11.3075C16.6154 10.9383 16.2923 10.6152 15.9231 10.6152H8.07695C7.70772 10.6152 7.38464 10.9383 7.38464 11.3075V12.6922C7.38464 13.0614 7.70772 13.3845 8.07695 13.3845H15.9231Z" fill="#071C43"/>
</svg>
