<svg width="60" height="60" viewBox="0 0 60 60" fill="none" xmlns="http://www.w3.org/2000/svg">
<path d="M30.3562 53.2125C42.9794 53.2125 53.2125 42.9794 53.2125 30.3562C53.2125 17.7331 42.9794 7.5 30.3562 7.5C17.7331 7.5 7.5 17.7331 7.5 30.3562C7.5 42.9794 17.7331 53.2125 30.3562 53.2125Z" fill="url(#paint0_radial_69_1803)"/>
<path opacity="0.5" d="M30.3562 53.2125C42.9794 53.2125 53.2125 42.9794 53.2125 30.3562C53.2125 17.7331 42.9794 7.5 30.3562 7.5C17.7331 7.5 7.5 17.7331 7.5 30.3562C7.5 42.9794 17.7331 53.2125 30.3562 53.2125Z" fill="url(#paint1_radial_69_1803)"/>
<path d="M15.5156 19.1089C15.4731 20.0231 16.4299 20.6397 18.1308 20.7248C19.5766 20.7885 22.7871 20.1507 25.1153 17.4398C25.5405 16.9402 24.9345 16.6212 24.5199 16.9402C23.1167 18.0139 19.449 19.3109 16.6531 18.875C15.5369 18.6943 15.5156 19.1089 15.5156 19.1089Z" fill="url(#paint2_linear_69_1803)"/>
<path d="M16.1216 23.6162C16.2067 23.3505 16.4512 23.2122 16.7276 23.2654C18.1415 23.5524 20.5441 24.5943 22.8509 25.9231C24.6794 26.9755 26.8056 29.6439 26.5505 30.5475C26.2634 31.5574 23.4144 32.3122 22.1918 32.5886C20.2889 33.0245 17.7907 33.354 16.4725 32.982C16.1216 32.8863 16.0047 32.6418 16.0154 32.4398C16.026 32.1634 16.2599 31.9401 16.6213 31.8764C20.4697 31.1109 23.0423 30.1542 23.0849 29.5695C23.0849 29.5695 23.2762 28.6552 20.8523 27.0819C19.3747 26.1251 17.7695 25.2852 16.7702 24.8069C16.1855 24.456 15.9941 23.9883 16.1216 23.6162Z" fill="url(#paint3_radial_69_1803)"/>
<path d="M16.717 23.2654C18.1309 23.5524 20.6185 24.2966 22.8403 25.9231C24.8814 27.4114 26.795 29.6439 26.5398 30.5475C26.3698 31.1322 25.3385 31.6318 24.2648 32.0039C24.2223 32.0145 24.1798 32.0358 24.1373 32.0464H24.1266C25.1366 31.2597 25.7638 30.2817 24.6369 28.8678C23.9246 27.9748 21.8198 25.2534 16.1004 23.6162C16.2067 23.3505 16.4512 23.2122 16.717 23.2654Z" fill="url(#paint4_linear_69_1803)"/>
<path d="M16.0152 32.4399C16.0258 32.1635 16.2597 31.9403 16.6212 31.8764C20.4695 31.1111 23.0422 30.1543 23.0847 29.5696C23.0209 30.5582 22.9678 31.0579 19.7785 31.7702C17.4079 32.3017 16.2916 32.4931 16.483 32.9927C16.1215 32.8757 16.0152 32.6312 16.0152 32.4399Z" fill="url(#paint5_linear_69_1803)"/>
<path d="M44.5909 23.6162C44.506 23.3505 44.2614 23.2122 43.985 23.2654C42.5711 23.5524 40.1686 24.5943 37.8616 25.9231C36.0331 26.9755 33.907 29.6439 34.1621 30.5475C34.4491 31.5574 37.2982 32.3122 38.5207 32.5886C40.4237 33.0245 42.922 33.354 44.2402 32.982C44.591 32.8863 44.7079 32.6418 44.6973 32.4398C44.6866 32.1634 44.4528 31.9401 44.0914 31.8764C40.243 31.1109 37.6703 30.1542 37.6278 29.5695C37.6278 29.5695 37.4364 28.6552 39.8602 27.0819C41.338 26.1251 42.9432 25.2852 43.9425 24.8069C44.5272 24.456 44.7185 23.9883 44.5909 23.6162Z" fill="url(#paint6_radial_69_1803)"/>
<path d="M43.9956 23.2654C42.5817 23.5524 40.0941 24.2966 37.8723 25.9231C35.8312 27.4114 33.9176 29.6439 34.1728 30.5475C34.3429 31.1322 35.3741 31.6318 36.4478 32.0039C36.4903 32.0145 36.5328 32.0358 36.5753 32.0464H36.586C35.576 31.2597 34.9488 30.2817 36.0757 28.8678C36.788 27.9748 38.8928 25.2534 44.6122 23.6162C44.5059 23.3505 44.2614 23.2122 43.9956 23.2654Z" fill="url(#paint7_linear_69_1803)"/>
<path d="M44.6973 32.4399C44.6867 32.1635 44.4528 31.9403 44.0914 31.8764C40.243 31.1111 37.6703 30.1543 37.6278 29.5696C37.6916 30.5582 37.7447 31.0579 40.934 31.7702C43.3047 32.3017 44.4209 32.4931 44.2295 32.9927C44.591 32.8757 44.6973 32.6312 44.6973 32.4399Z" fill="url(#paint8_linear_69_1803)"/>
<path d="M30.3562 38.8184C37.0643 38.8184 39.2117 45.452 37.16 44.4102C34.4172 43.0175 32.6843 42.89 30.3562 42.89C28.028 42.89 26.2952 43.0282 23.5525 44.4102C21.5007 45.452 23.6482 38.8184 30.3562 38.8184Z" fill="#643800"/>
<path d="M30.3562 39.9878C34.3109 39.9878 36.809 42.2203 37.904 44.07C37.9678 42.7305 35.5121 38.8184 30.3562 38.8184C25.2108 38.8184 22.7445 42.7305 22.8083 44.07C23.9033 42.2203 26.4015 39.9878 30.3562 39.9878Z" fill="url(#paint9_linear_69_1803)"/>
<path d="M45.1969 19.1089C45.2393 20.0231 44.2826 20.6397 42.5816 20.7248C41.1359 20.7885 37.9253 20.1507 35.5972 17.4398C35.172 16.9402 35.7779 16.6212 36.1925 16.9402C37.5958 18.0139 41.2634 19.3109 44.0594 18.875C45.1756 18.6943 45.1969 19.1089 45.1969 19.1089Z" fill="url(#paint10_linear_69_1803)"/>
<defs>
<radialGradient id="paint0_radial_69_1803" cx="0" cy="0" r="1" gradientUnits="userSpaceOnUse" gradientTransform="translate(25.8592 21.0934) scale(27.5731)">
<stop stop-color="#FFDF30"/>
<stop offset="1" stop-color="#FFB82E"/>
</radialGradient>
<radialGradient id="paint1_radial_69_1803" cx="0" cy="0" r="1" gradientUnits="userSpaceOnUse" gradientTransform="translate(25.8592 21.0934) scale(21.693)">
<stop stop-color="#FFE95F"/>
<stop offset="1" stop-color="#FFBB47" stop-opacity="0"/>
</radialGradient>
<linearGradient id="paint2_linear_69_1803" x1="19.097" y1="21.6553" x2="20.7629" y2="17.1113" gradientUnits="userSpaceOnUse">
<stop offset="0.00132565" stop-color="#3C2200"/>
<stop offset="1" stop-color="#7A4400"/>
</linearGradient>
<radialGradient id="paint3_radial_69_1803" cx="0" cy="0" r="1" gradientUnits="userSpaceOnUse" gradientTransform="translate(20.7009 29.2877) rotate(-57.9898) scale(5.37598 3.47779)">
<stop offset="0.00132565" stop-color="#7A4400"/>
<stop offset="1" stop-color="#643800"/>
</radialGradient>
<linearGradient id="paint4_linear_69_1803" x1="26.8561" y1="29.4594" x2="15.385" y2="26.199" gradientUnits="userSpaceOnUse">
<stop offset="0.00132565" stop-color="#3C2200"/>
<stop offset="1" stop-color="#512D00"/>
</linearGradient>
<linearGradient id="paint5_linear_69_1803" x1="22.9405" y1="31.4765" x2="16.0983" y2="31.0267" gradientUnits="userSpaceOnUse">
<stop offset="0.00132565" stop-color="#3C2200"/>
<stop offset="1" stop-color="#512D00"/>
</linearGradient>
<radialGradient id="paint6_radial_69_1803" cx="0" cy="0" r="1" gradientUnits="userSpaceOnUse" gradientTransform="translate(40.0056 29.2794) rotate(-122.01) scale(5.37598 3.4778)">
<stop offset="0.00132565" stop-color="#7A4400"/>
<stop offset="1" stop-color="#643800"/>
</radialGradient>
<linearGradient id="paint7_linear_69_1803" x1="33.8577" y1="29.457" x2="45.3287" y2="26.1966" gradientUnits="userSpaceOnUse">
<stop offset="0.00132565" stop-color="#3C2200"/>
<stop offset="1" stop-color="#512D00"/>
</linearGradient>
<linearGradient id="paint8_linear_69_1803" x1="37.7618" y1="31.4759" x2="44.6039" y2="31.026" gradientUnits="userSpaceOnUse">
<stop offset="0.00132565" stop-color="#3C2200"/>
<stop offset="1" stop-color="#512D00"/>
</linearGradient>
<linearGradient id="paint9_linear_69_1803" x1="30.3559" y1="37.0844" x2="30.3559" y2="42.3733" gradientUnits="userSpaceOnUse">
<stop offset="0.00132565" stop-color="#3C2200"/>
<stop offset="1" stop-color="#512D00"/>
</linearGradient>
<linearGradient id="paint10_linear_69_1803" x1="41.6145" y1="21.6571" x2="39.9488" y2="17.1131" gradientUnits="userSpaceOnUse">
<stop offset="0.00132565" stop-color="#3C2200"/>
<stop offset="1" stop-color="#7A4400"/>
</linearGradient>
</defs>
</svg>
