<svg width="153" height="33" viewBox="0 0 153 33" fill="none" xmlns="http://www.w3.org/2000/svg">
<path d="M0.334735 17.3053C-0.111578 16.859 -0.111578 16.1354 0.334735 15.6891L6.79971 9.22408C7.24602 8.77776 7.96964 8.77776 8.41596 9.22408L14.8809 15.6891C15.3272 16.1354 15.3272 16.859 14.8809 17.3053L8.41596 23.7703C7.96964 24.2166 7.24602 24.2166 6.79971 23.7703L0.334735 17.3053Z" fill="#C8ADE8"/>
<path d="M9.22408 26.1946C8.77776 25.7483 8.77776 25.0247 9.22408 24.5784L15.6891 18.1134C16.1354 17.6671 16.859 17.6671 17.3053 18.1134L23.7703 24.5784C24.2166 25.0247 24.2166 25.7483 23.7703 26.1946L17.3053 32.6596C16.859 33.1059 16.1354 33.1059 15.6891 32.6596L9.22408 26.1946Z" fill="#C8ADE8"/>
<path d="M9.22408 8.41596C8.77776 7.96964 8.77776 7.24603 9.22408 6.79971L15.6891 0.334735C16.1354 -0.111578 16.859 -0.111578 17.3053 0.334735L23.7703 6.79971C24.2166 7.24603 24.2166 7.96964 23.7703 8.41596L17.3053 14.8809C16.859 15.3272 16.1354 15.3272 15.6891 14.8809L9.22408 8.41596Z" fill="#C8ADE8"/>
<path d="M18.1134 17.3053C17.6671 16.859 17.6671 16.1354 18.1134 15.6891L24.5784 9.22408C25.0247 8.77776 25.7483 8.77776 26.1946 9.22408L32.6596 15.6891C33.1059 16.1354 33.1059 16.859 32.6596 17.3053L26.1946 23.7703C25.7483 24.2166 25.0247 24.2166 24.5784 23.7703L18.1134 17.3053Z" fill="#C8ADE8"/>
<path d="M12.8786 11.8697H15.0866V10.5897C15.0866 5.82173 17.5826 3.74173 21.6466 3.74173C22.3186 3.74173 23.0866 3.80573 23.8546 3.93373V8.15773H22.4786C20.4626 8.15773 20.0146 9.21373 20.0146 10.5897V11.8697H23.8546V15.9657H20.0146V27.8697H15.0866V15.9657H12.8786V11.8697Z" fill="#392056"/>
<path d="M33.0254 28.2857C28.1934 28.2857 24.7374 24.7657 24.7374 19.8377C24.7374 14.8457 28.0974 11.3577 32.9294 11.3577C37.9534 11.3577 41.0894 14.6537 41.0894 19.8697V21.1177L29.4734 21.1817C29.7614 23.2937 30.9454 24.2857 33.1214 24.2857C34.9774 24.2857 36.2894 23.6137 36.6414 22.4617H41.1534C40.5774 26.0137 37.4094 28.2857 33.0254 28.2857ZM32.9614 15.3577C31.0094 15.3577 29.9214 16.2217 29.5374 18.1417H36.1934C36.1934 16.4457 34.9454 15.3577 32.9614 15.3577Z" fill="#392056"/>
<path d="M51.4316 28.2857C46.5996 28.2857 43.1436 24.7657 43.1436 19.8377C43.1436 14.8457 46.5036 11.3577 51.3356 11.3577C56.3596 11.3577 59.4956 14.6537 59.4956 19.8697V21.1177L47.8796 21.1817C48.1676 23.2937 49.3516 24.2857 51.5276 24.2857C53.3836 24.2857 54.6956 23.6137 55.0476 22.4617H59.5596C58.9836 26.0137 55.8156 28.2857 51.4316 28.2857ZM51.3676 15.3577C49.4156 15.3577 48.3276 16.2217 47.9436 18.1417H54.5996C54.5996 16.4457 53.3516 15.3577 51.3676 15.3577Z" fill="#392056"/>
<path d="M69.1339 28.2857C64.5259 28.2857 61.5499 25.0217 61.5499 19.9657C61.5499 14.8777 64.5899 11.3577 69.4539 11.3577C71.4379 11.3577 73.3259 12.1577 74.2539 13.3417V3.74173H79.1819V27.8697H74.5419L74.2859 25.8217C73.4219 27.2937 71.4379 28.2857 69.1339 28.2857ZM70.3179 23.7737C72.6219 23.7737 74.2219 22.1737 74.2219 19.7737C74.2219 17.3737 72.6219 15.7737 70.3179 15.7737C67.9819 15.7737 66.5099 17.4057 66.5099 19.7737C66.5099 22.1417 67.9819 23.7737 70.3179 23.7737Z" fill="#392056"/>
<path d="M87.5226 27.8697H82.8826V3.74173H87.8106V13.7257C88.7706 12.2857 90.8826 11.3257 93.1866 11.3257C97.6666 11.3257 100.515 14.8137 100.515 20.0297C100.515 24.9897 97.3466 28.2857 92.8026 28.2857C90.5626 28.2857 88.6426 27.2937 87.7786 25.8217L87.5226 27.8697ZM87.8426 19.7737C87.8426 22.1737 89.4426 23.7737 91.7466 23.7737C94.0826 23.7737 95.5546 22.1417 95.5546 19.7737C95.5546 17.4057 94.0826 15.7737 91.7466 15.7737C89.4426 15.7737 87.8426 17.3737 87.8426 19.7737Z" fill="#392056"/>
<path d="M108.183 28.2857C104.791 28.2857 102.679 26.3017 102.679 23.1657C102.679 20.2217 104.759 18.3977 108.599 18.1097L113.079 17.7577V17.5017C113.079 15.9337 112.119 15.1017 110.359 15.1017C108.279 15.1017 107.159 15.9017 107.159 17.3417H103.063C103.063 13.7257 106.039 11.3577 110.615 11.3577C115.255 11.3577 117.879 13.9497 117.879 18.5257V27.8697H113.527L113.207 25.7577C112.695 27.2297 110.583 28.2857 108.183 28.2857ZM109.911 24.6377C111.799 24.6377 113.111 23.7097 113.111 21.8857V21.0217L110.615 21.2457C108.471 21.4377 107.703 21.9177 107.703 22.9417C107.703 24.0937 108.407 24.6377 109.911 24.6377Z" fill="#392056"/>
<path d="M120.262 22.8137H124.934C124.998 23.9337 125.83 24.6057 127.334 24.6057C128.87 24.6057 129.574 24.0617 129.574 23.2297C129.574 22.7497 129.318 22.2377 128.134 21.9817L125.19 21.3417C122.246 20.7017 120.806 19.4217 120.806 16.6057C120.806 13.2777 123.654 11.3577 127.494 11.3577C131.206 11.3577 133.798 13.5337 133.798 16.7657H129.126C129.126 15.6777 128.454 14.9417 127.27 14.9417C126.15 14.9417 125.446 15.5177 125.446 16.3817C125.446 17.1177 126.054 17.5337 127.174 17.7897L130.15 18.4297C132.774 19.0057 134.214 20.2217 134.214 22.7817C134.214 26.2057 131.302 28.2857 127.142 28.2857C122.918 28.2857 120.262 26.0457 120.262 22.8137Z" fill="#392056"/>
<path d="M141.717 27.8697H136.789V3.74173H141.749V13.5337C142.741 12.1577 144.565 11.3577 146.645 11.3577C150.453 11.3577 152.661 13.7897 152.661 17.9817V27.8697H147.733V19.1657C147.733 17.1497 146.613 15.8377 144.917 15.8377C142.965 15.8377 141.717 17.1177 141.717 19.1017V27.8697Z" fill="#392056"/>
</svg>
