<svg width="60" height="60" viewBox="0 0 60 60" fill="none" xmlns="http://www.w3.org/2000/svg">
<path d="M11.5 7.5C9.29086 7.5 7.5 9.29086 7.5 11.5V48.5C7.5 50.7091 9.29086 52.5 11.5 52.5H48.5C50.7091 52.5 52.5 50.7091 52.5 48.5V11.5C52.5 9.29086 50.7091 7.5 48.5 7.5H11.5ZM48.75 44.75C48.75 46.9591 46.9591 48.75 44.75 48.75H15.25C13.0409 48.75 11.25 46.9591 11.25 44.75V15.25C11.25 13.0409 13.0409 11.25 15.25 11.25H44.75C46.9591 11.25 48.75 13.0409 48.75 15.25V44.75Z" fill="#092557"/>
<path d="M45 33.75H33.75V37.5H45V33.75Z" fill="#092557"/>
<path d="M45 15H15V30H45V15ZM41.25 26.25H18.75V18.75H41.25V26.25Z" fill="#092557"/>
<path d="M30 33.75H15V45H30V33.75ZM26.25 41.25H18.75V37.5H26.25V41.25Z" fill="#092557"/>
<path d="M45 41.25H33.75V45H45V41.25Z" fill="#092557"/>
</svg>
