<svg width="45" height="45" viewBox="0 0 45 45" fill="none" xmlns="http://www.w3.org/2000/svg">
<path d="M1.0775 23.7049C0.482412 23.1099 0.482411 22.145 1.0775 21.5499L9.69746 12.93C10.2925 12.3349 11.2574 12.3349 11.8525 12.93L20.4724 21.5499C21.0675 22.145 21.0675 23.1099 20.4724 23.7049L11.8525 32.3249C11.2574 32.92 10.2925 32.92 9.69746 32.3249L1.0775 23.7049Z" fill="#91A9D3"/>
<path d="M12.93 35.5574C12.3349 34.9623 12.3349 33.9975 12.93 33.4024L21.5499 24.7824C22.145 24.1873 23.1098 24.1873 23.7049 24.7824L32.3249 33.4024C32.92 33.9975 32.92 34.9623 32.3249 35.5574L23.7049 44.1774C23.1098 44.7724 22.145 44.7724 21.5499 44.1774L12.93 35.5574Z" fill="#91A9D3"/>
<path d="M12.93 11.8525C12.3349 11.2574 12.3349 10.2926 12.93 9.69749L21.5499 1.07752C22.145 0.482436 23.1098 0.482436 23.7049 1.07752L32.3249 9.69749C32.92 10.2926 32.92 11.2574 32.3249 11.8525L23.7049 20.4724C23.1098 21.0675 22.145 21.0675 21.5499 20.4724L12.93 11.8525Z" fill="#91A9D3"/>
<path d="M24.7824 23.7049C24.1873 23.1099 24.1873 22.145 24.7824 21.5499L33.4024 12.93C33.9975 12.3349 34.9623 12.3349 35.5574 12.93L44.1773 21.5499C44.7724 22.145 44.7724 23.1099 44.1773 23.7049L35.5574 32.3249C34.9623 32.92 33.9975 32.92 33.4024 32.3249L24.7824 23.7049Z" fill="#91A9D3"/>
</svg>
