<svg width="36" height="34" viewBox="0 0 36 34" fill="none" xmlns="http://www.w3.org/2000/svg">
<path d="M16.6227 0.615969C16.9643 -0.205323 18.1278 -0.205323 18.4694 0.615969L22.6015 10.5509C22.7455 10.8972 23.0712 11.1337 23.4449 11.1637L34.1706 12.0236C35.0572 12.0946 35.4167 13.2012 34.7412 13.7798L26.5694 20.7798C26.2846 21.0238 26.1603 21.4066 26.2473 21.7713L28.7439 32.2377C28.9503 33.1029 28.009 33.7868 27.2499 33.3231L18.0673 27.7144C17.7473 27.519 17.3448 27.519 17.0248 27.7144L7.84215 33.3231C7.08305 33.7868 6.1418 33.1029 6.34819 32.2377L8.8448 21.7713C8.93181 21.4066 8.80744 21.0238 8.52265 20.7798L0.350859 13.7798C-0.324678 13.2012 0.0348479 12.0946 0.921502 12.0236L11.6471 11.1637C12.0209 11.1337 12.3465 10.8972 12.4905 10.5509L16.6227 0.615969Z" fill="#B1B4B9"/>
</svg>
