<svg width="40" height="40" viewBox="0 0 40 40" fill="none" xmlns="http://www.w3.org/2000/svg">
<g clip-path="url(#clip0_69_2351)">
<path fill-rule="evenodd" clip-rule="evenodd" d="M19.325 28.1688C18.8375 27.6813 18.8375 26.89 19.325 26.4013L24.4875 21.25H11.25C10.5625 21.25 10 20.6912 10 20C10 19.3088 10.5625 18.75 11.25 18.75H24.4875L19.325 13.5987C18.8375 13.11 18.8375 12.3175 19.325 11.8312C19.825 11.3425 20.6125 11.3425 21.1 11.8312L28.175 18.9013C28.475 19.2013 28.5625 19.6113 28.4875 20C28.5625 20.3887 28.475 20.7987 28.175 21.0987L21.1 28.1688C20.6125 28.6575 19.825 28.6575 19.325 28.1688ZM40 20C40 8.95375 31.05 0 20 0C8.95 0 0 8.95375 0 20C0 31.0462 8.95 40 20 40C31.05 40 40 31.0462 40 20Z" fill="#4069B2"/>
</g>
<defs>
<clipPath id="clip0_69_2351">
<rect width="40" height="40" fill="white" transform="matrix(0 1 -1 0 40 0)"/>
</clipPath>
</defs>
</svg>
