<svg width="36" height="35" viewBox="0 0 36 35" fill="none" xmlns="http://www.w3.org/2000/svg">
<path d="M17.0767 1.21997C17.4183 0.398681 18.5817 0.398681 18.9233 1.21997L23.0555 11.1549C23.1995 11.5012 23.5251 11.7377 23.8989 11.7677L34.6245 12.6276C35.5112 12.6987 35.8707 13.8052 35.1952 14.3838L27.0234 21.3838C26.7386 21.6278 26.6142 22.0106 26.7012 22.3753L29.1979 32.8417C29.4042 33.7069 28.463 34.3908 27.7039 33.9271L18.5213 28.3184C18.2013 28.123 17.7988 28.123 17.4788 28.3184L8.29613 33.9271C7.53703 34.3908 6.59578 33.7069 6.80217 32.8417L9.29878 22.3753C9.38579 22.0106 9.26142 21.6278 8.97663 21.3838L0.804838 14.3838C0.129301 13.8052 0.488827 12.6987 1.37548 12.6276L12.1011 11.7677C12.4749 11.7377 12.8005 11.5012 12.9445 11.1549L17.0767 1.21997Z" fill="#F5C724"/>
</svg>
