<svg width="36" height="34" viewBox="0 0 36 34" fill="none" xmlns="http://www.w3.org/2000/svg">
<path d="M16.6227 0.619831C16.9643 -0.201462 18.1278 -0.201462 18.4694 0.619831L22.6015 10.5548C22.7455 10.901 23.0712 11.1376 23.4449 11.1676L34.1706 12.0274C35.0572 12.0985 35.4167 13.205 34.7412 13.7837L26.5694 20.7837C26.2846 21.0276 26.1603 21.4104 26.2473 21.7752L28.7439 32.2416C28.9503 33.1068 28.009 33.7907 27.2499 33.327L18.0673 27.7183C17.7473 27.5228 17.3448 27.5228 17.0248 27.7183L7.84215 33.327C7.08305 33.7907 6.1418 33.1068 6.34819 32.2416L8.8448 21.7752C8.93181 21.4104 8.80744 21.0276 8.52265 20.7837L0.350859 13.7837C-0.324678 13.205 0.0348479 12.0985 0.921502 12.0274L11.6471 11.1676C12.0209 11.1376 12.3465 10.901 12.4905 10.5548L16.6227 0.619831Z" fill="#F5C724"/>
<path d="M17.546 27.5678C17.7267 27.5678 17.9073 27.6167 18.0673 27.7144L27.2499 33.3231C28.009 33.7868 28.9503 33.1029 28.7439 32.2377L26.2473 21.7713C26.1603 21.4066 26.2846 21.0238 26.5694 20.7798L34.7412 13.7798C35.4167 13.2012 35.0572 12.0946 34.1706 12.0236L23.4449 11.1637C23.0712 11.1337 22.7455 10.8972 22.6015 10.5509L18.4694 0.615969C18.2986 0.205323 17.9223 -3.5725e-08 17.546 0V27.5678Z" fill="#B1B4B9"/>
</svg>
