<svg width="48" height="48" viewBox="0 0 48 48" fill="none" xmlns="http://www.w3.org/2000/svg">
<path d="M4 8C4 7.46957 4.21071 6.96086 4.58579 6.58579C4.96086 6.21071 5.46957 6 6 6H42C42.5304 6 43.0391 6.21071 43.4142 6.58579C43.7893 6.96086 44 7.46957 44 8C44 8.53043 43.7893 9.03914 43.4142 9.41421C43.0391 9.78929 42.5304 10 42 10H6C5.46957 10 4.96086 9.78929 4.58579 9.41421C4.21071 9.03914 4 8.53043 4 8ZM6 26H42C42.5304 26 43.0391 25.7893 43.4142 25.4142C43.7893 25.0391 44 24.5304 44 24C44 23.4696 43.7893 22.9609 43.4142 22.5858C43.0391 22.2107 42.5304 22 42 22H6C5.46957 22 4.96086 22.2107 4.58579 22.5858C4.21071 22.9609 4 23.4696 4 24C4 24.5304 4.21071 25.0391 4.58579 25.4142C4.96086 25.7893 5.46957 26 6 26ZM6 42H42C42.5304 42 43.0391 41.7893 43.4142 41.4142C43.7893 41.0391 44 40.5304 44 40C44 39.4696 43.7893 38.9609 43.4142 38.5858C43.0391 38.2107 42.5304 38 42 38H6C5.46957 38 4.96086 38.2107 4.58579 38.5858C4.21071 38.9609 4 39.4696 4 40C4 40.5304 4.21071 41.0391 4.58579 41.4142C4.96086 41.7893 5.46957 42 6 42Z" fill="#092557"/>
</svg>
