<svg width="32" height="32" viewBox="0 0 32 32" fill="none" xmlns="http://www.w3.org/2000/svg">
<path d="M4.01601 14.6413L4.00001 14.6666H6.66667V26.6666C6.66667 27.0202 6.80715 27.3594 7.0572 27.6094C7.30725 27.8595 7.64638 28 8.00001 28H24C24.3536 28 24.6928 27.8595 24.9428 27.6094C25.1929 27.3594 25.3333 27.0202 25.3333 26.6666V14.6666H28C28.2862 14.6667 28.5648 14.5747 28.7946 14.4042C29.0245 14.2337 29.1934 13.9938 29.2764 13.7199C29.3593 13.446 29.352 13.1527 29.2554 12.8833C29.1588 12.6139 28.9781 12.3827 28.74 12.224L16.74 4.22396C16.5209 4.07777 16.2634 3.99976 16 3.99976C15.7366 3.99976 15.4791 4.07777 15.26 4.22396L3.26001 12.224C3.11431 12.3211 2.98918 12.446 2.89177 12.5916C2.79435 12.7371 2.72656 12.9004 2.69226 13.0721C2.65797 13.2439 2.65784 13.4207 2.69188 13.5924C2.72592 13.7642 2.79347 13.9276 2.89067 14.0733C3.01512 14.2552 3.18356 14.4027 3.38032 14.502C3.57707 14.6013 3.79575 14.6492 4.01601 14.6413ZM13.3333 18.6666C13.3333 18.313 13.4738 17.9739 13.7239 17.7238C13.9739 17.4738 14.3131 17.3333 14.6667 17.3333H17.3333C17.687 17.3333 18.0261 17.4738 18.2761 17.7238C18.5262 17.9739 18.6667 18.313 18.6667 18.6666V25.3333H13.3333V18.6666Z" fill="#4069B2"/>
</svg>
