<svg width="41" height="41" viewBox="0 0 41 41" fill="none" xmlns="http://www.w3.org/2000/svg">
<path d="M27.8363 8.7071L24.5696 5.44043C22.2363 3.1071 18.403 3.1071 16.0696 5.44043L12.8029 8.7071C12.1529 9.3571 12.1529 10.4238 12.8029 11.0738L19.153 17.4238C19.803 18.0738 20.853 18.0738 21.503 17.4238L27.853 11.0738C28.4863 10.4238 28.4863 9.3571 27.8363 8.7071Z" fill="#4069B2"/>
<path d="M8.66999 12.8439L5.40332 16.1106C3.06999 18.4439 3.06999 22.2772 5.40332 24.6106L8.66999 27.8772C9.31999 28.5272 10.37 28.5272 11.02 27.8772L17.37 21.5272C18.02 20.8772 18.02 19.8272 17.37 19.1772L11.0367 12.8439C10.3867 12.1939 9.31999 12.1939 8.66999 12.8439Z" fill="#4069B2"/>
<path d="M35.2354 16.1106L31.9687 12.8439C31.3187 12.1939 30.2687 12.1939 29.6187 12.8439L23.2687 19.1939C22.6188 19.8439 22.6188 20.8939 23.2687 21.5439L29.6187 27.8939C30.2687 28.5439 31.3187 28.5439 31.9687 27.8939L35.2354 24.6272C37.5688 22.2772 37.5688 18.4439 35.2354 16.1106Z" fill="#4069B2"/>
<path d="M12.8021 32.0059L16.0688 35.2725C18.4022 37.6059 22.2355 37.6059 24.5688 35.2725L27.8355 32.0059C28.4855 31.3559 28.4855 30.3059 27.8355 29.6559L21.4855 23.3059C20.8355 22.6559 19.7855 22.6559 19.1355 23.3059L12.7854 29.6559C12.1521 30.2892 12.1521 31.3559 12.8021 32.0059Z" fill="#4069B2"/>
</svg>
