<svg width="32" height="32" viewBox="0 0 32 32" fill="none" xmlns="http://www.w3.org/2000/svg">
<path d="M23.0572 19.0573C22.5365 19.5779 22.5365 20.4222 23.0572 20.9429C23.5779 21.4635 24.4221 21.4635 24.9428 20.9429L28.8268 17.0589C28.8468 17.0389 28.8663 17.0183 28.8849 16.9974C29.16 16.7531 29.3333 16.3969 29.3333 16.0001C29.3333 15.6033 29.16 15.247 28.8849 15.0027C28.8663 14.9818 28.8468 14.9613 28.8268 14.9413L24.9428 11.0573C24.4221 10.5366 23.5779 10.5366 23.0572 11.0573C22.5365 11.578 22.5365 12.4222 23.0572 12.9429L24.7811 14.6667H17.3333C16.5969 14.6667 16 15.2637 16 16.0001C16 16.7365 16.5969 17.3334 17.3333 17.3334H24.7811L23.0572 19.0573Z" fill="#5F81BF"/>
<path d="M6.66669 2.66675C4.45755 2.66675 2.66669 4.45761 2.66669 6.66675V25.3334C2.66669 27.5426 4.45755 29.3334 6.66669 29.3334H19.3334C21.1743 29.3334 22.6667 27.841 22.6667 26.0001V22.3102C22.4692 22.1961 22.2834 22.0546 22.1144 21.8857C21.2419 21.0131 21.1004 19.6866 21.6899 18.6667H17.3334C15.8606 18.6667 14.6667 17.4729 14.6667 16.0001C14.6667 14.5273 15.8606 13.3334 17.3334 13.3334H21.6899C21.1004 12.3136 21.2419 10.9869 22.1144 10.1145C22.2834 9.94555 22.4692 9.80403 22.6667 9.68992V6.00008C22.6667 4.15913 21.1743 2.66675 19.3334 2.66675H6.66669Z" fill="#5F81BF"/>
</svg>
