<svg width="60" height="60" viewBox="0 0 60 60" fill="none" xmlns="http://www.w3.org/2000/svg">
<path fill-rule="evenodd" clip-rule="evenodd" d="M45.429 2.5C46.755 2.5 48.0268 3.02678 48.9645 3.96448L56.0355 11.0355C56.9732 11.9732 57.5 13.245 57.5 14.5711V50C57.5 54.1423 54.1423 57.5 50 57.5H10C5.85788 57.5 2.5 54.1423 2.5 50V10C2.5 5.85788 5.85788 2.5 10 2.5H45.429ZM10 7.5C8.6193 7.5 7.5 8.6193 7.5 10V50C7.5 51.3807 8.6193 52.5 10 52.5H12.5V37.5C12.5 33.3577 15.8579 30 20 30H40C44.1423 30 47.5 33.3577 47.5 37.5V52.5H50C51.3807 52.5 52.5 51.3807 52.5 50V17.0711C52.5 15.745 51.9732 14.4732 51.0355 13.5355L46.4645 8.96447C45.5268 8.02677 44.255 7.5 42.929 7.5H42.5V12.5C42.5 16.6421 39.1423 20 35 20H25C20.8579 20 17.5 16.6421 17.5 12.5V7.5H10ZM42.5 52.5V37.5C42.5 36.1193 41.3807 35 40 35H20C18.6193 35 17.5 36.1193 17.5 37.5V52.5H42.5ZM22.5 7.5H37.5V12.5C37.5 13.8807 36.3807 15 35 15H25C23.6193 15 22.5 13.8807 22.5 12.5V7.5Z" fill="#092557"/>
</svg>
