<svg width="60" height="60" viewBox="0 0 60 60" fill="none" xmlns="http://www.w3.org/2000/svg">
<path d="M28.9157 2.54315L27.2414 1.69932L27.2362 1.70994L28.9157 2.54315ZM31.0857 2.54315L32.7654 1.70992L32.7602 1.69933L31.0857 2.54315ZM33.6082 7.6281L31.9287 8.46133L31.9312 8.4668L33.6082 7.6281ZM40.1757 9.10057L39.9077 10.9563L39.9149 10.9573L40.1757 9.10057ZM41.1482 9.90807L42.9282 9.31898L42.9254 9.3104L41.1482 9.90807ZM40.8457 11.1256L39.5482 9.77183L39.5379 9.78182L40.8457 11.1256ZM36.7507 15.1105L38.0527 16.4599L38.0584 16.4542L36.7507 15.1105ZM36.4057 16.158L34.5567 16.4696L34.5582 16.477L36.4057 16.158ZM37.3757 21.7755L39.2252 21.4673L39.2234 21.4564L37.3757 21.7755ZM36.8907 22.9379L35.8087 21.4067L35.8012 21.4119L36.8907 22.9379ZM35.6182 23.0254L36.4884 21.3647L36.4852 21.363L35.6182 23.0254ZM30.5657 20.3905L29.6867 22.0466L29.6987 22.0529L30.5657 20.3905ZM29.4357 20.3905L30.3044 22.0521L30.3149 22.0465L29.4357 20.3905ZM23.1234 22.9379L24.2128 21.4119L24.2055 21.4067L23.1234 22.9379ZM22.6384 21.7755L20.7907 21.4564L20.7889 21.4673L22.6384 21.7755ZM23.6084 16.158L25.4559 16.477L25.4572 16.4696L23.6084 16.158ZM23.2634 15.1105L21.9578 16.4562L21.9615 16.4599L23.2634 15.1105ZM19.1559 11.1256L20.4615 9.77983L20.4532 9.77188L19.1559 11.1256ZM18.8534 9.90807L17.0762 9.3104L17.0734 9.31898L18.8534 9.90807ZM19.8259 9.10057L20.0867 10.9573L20.0939 10.9563L19.8259 9.10057ZM26.3934 7.6281L28.0702 8.4668L28.0729 8.46133L26.3934 7.6281ZM30.5902 3.387C30.5352 3.49612 30.4509 3.58785 30.3469 3.65193L28.3804 0.45891C27.8932 0.75895 27.4989 1.18836 27.2414 1.69932L30.5902 3.387ZM30.3469 3.65193C30.2429 3.71603 30.1229 3.74995 30.0007 3.74995V0C29.4287 0 28.8677 0.158871 28.3804 0.45891L30.3469 3.65193ZM30.0007 3.74995C29.8787 3.74995 29.7587 3.71603 29.6547 3.65193L31.6212 0.45891C31.1339 0.158871 30.5729 0 30.0007 0V3.74995ZM29.6547 3.65193C29.5507 3.58785 29.4664 3.49612 29.4114 3.387L32.7602 1.69933C32.5027 1.18837 32.1084 0.75895 31.6212 0.45891L29.6547 3.65193ZM29.4062 3.3764L31.9287 8.46133L35.2879 6.79488L32.7654 1.70992L29.4062 3.3764ZM31.9312 8.4668C32.1539 8.91177 32.4807 9.29625 32.8842 9.58742L35.0789 6.54675C35.1662 6.6098 35.2369 6.69305 35.2852 6.78943L31.9312 8.4668ZM32.8842 9.58742C33.2877 9.8786 33.7554 10.0678 34.2479 10.1389L34.7837 6.42738C34.8904 6.44275 34.9914 6.4837 35.0789 6.54675L32.8842 9.58742ZM34.2479 10.1389L39.9077 10.9563L40.4437 7.24487L34.7837 6.42738L34.2479 10.1389ZM39.9149 10.9573C39.7912 10.94 39.6749 10.8885 39.5787 10.8088L41.9744 7.92373C41.5347 7.55873 41.0022 7.32333 40.4364 7.24383L39.9149 10.9573ZM39.5787 10.8088C39.4827 10.729 39.4107 10.6241 39.3709 10.5058L42.9254 9.3104C42.7432 8.76885 42.4139 8.2887 41.9744 7.92373L39.5787 10.8088ZM39.3682 10.4972C39.3267 10.3716 39.3214 10.2368 39.3534 10.1084L42.9927 11.0127C43.1317 10.4533 43.1092 9.8661 42.9282 9.31898L39.3682 10.4972ZM39.3534 10.1084C39.3852 9.98007 39.4527 9.86333 39.5482 9.77183L42.1429 12.4793C42.5592 12.0805 42.8537 11.572 42.9927 11.0127L39.3534 10.1084ZM39.5379 9.78182L35.4432 13.7668L38.0584 16.4542L42.1532 12.4693L39.5379 9.78182ZM35.4489 13.7612C35.0912 14.1062 34.8232 14.5331 34.6677 15.005L38.2294 16.1781C38.1942 16.285 38.1337 16.3817 38.0527 16.4599L35.4489 13.7612ZM34.6677 15.005C34.5124 15.477 34.4739 15.9797 34.5567 16.4696L38.2547 15.8464C38.2734 15.9574 38.2647 16.0712 38.2294 16.1781L34.6677 15.005ZM34.5582 16.477L35.5282 22.0945L39.2234 21.4564L38.2534 15.839L34.5582 16.477ZM35.5262 22.0836C35.5049 21.9556 35.5202 21.8243 35.5699 21.7045L39.0309 23.1484C39.2524 22.6174 39.3197 22.0348 39.2252 21.4673L35.5262 22.0836ZM35.5699 21.7045C35.6199 21.5848 35.7027 21.4816 35.8087 21.4067L37.9727 24.4691C38.4427 24.1371 38.8094 23.6794 39.0309 23.1484L35.5699 21.7045ZM35.8012 21.4119C35.9002 21.3413 36.0169 21.2994 36.1382 21.2911L36.3954 25.0323C36.9662 24.993 37.5147 24.7963 37.9802 24.4639L35.8012 21.4119ZM36.1382 21.2911C36.2594 21.2828 36.3807 21.3082 36.4884 21.3647L34.7479 24.6862C35.2544 24.9517 35.8249 25.0715 36.3954 25.0323L36.1382 21.2911ZM36.4852 21.363L31.4327 18.728L29.6987 22.0529L34.7512 24.6879L36.4852 21.363ZM31.4449 18.7344C31.0002 18.4983 30.5044 18.3748 30.0007 18.3748V22.1248C29.8912 22.1248 29.7834 22.098 29.6867 22.0466L31.4449 18.7344ZM30.0007 18.3748C29.4972 18.3748 29.0014 18.4983 28.5567 18.7344L30.3149 22.0465C30.2182 22.0979 30.1104 22.1248 30.0007 22.1248V18.3748ZM28.5672 18.7289L23.5271 21.3638L25.2647 24.687L30.3044 22.0521L28.5672 18.7289ZM23.5271 21.3638C23.6348 21.3074 23.7545 21.2828 23.8759 21.2911L23.6186 25.0323C24.1892 25.0715 24.758 24.9525 25.2647 24.687L23.5271 21.3638ZM23.8759 21.2911C23.9972 21.2994 24.1138 21.3413 24.2128 21.4119L22.034 24.4639C22.4995 24.7963 23.048 24.993 23.6186 25.0323L23.8759 21.2911ZM24.2055 21.4067C24.3114 21.4816 24.3941 21.5848 24.444 21.7045L20.9832 23.1484C21.2047 23.6794 21.5714 24.1371 22.0413 24.4691L24.2055 21.4067ZM24.444 21.7045C24.494 21.8243 24.5092 21.9556 24.4879 22.0836L20.7889 21.4673C20.6943 22.0348 20.7617 22.6174 20.9832 23.1484L24.444 21.7045ZM24.486 22.0945L25.4559 16.477L21.7607 15.839L20.7907 21.4564L24.486 22.0945ZM25.4572 16.4696C25.5399 15.9797 25.5017 15.4769 25.3464 15.005L21.7846 16.1781C21.7494 16.0713 21.7408 15.9574 21.7595 15.8464L25.4572 16.4696ZM25.3464 15.005C25.1909 14.5331 24.9228 14.1062 24.5652 13.7612L21.9615 16.4599C21.8805 16.3817 21.8198 16.285 21.7846 16.1781L25.3464 15.005ZM24.569 13.7648L20.4615 9.77983L17.8503 12.4713L21.9578 16.4562L24.569 13.7648ZM20.4532 9.77188C20.5487 9.86338 20.6163 9.98007 20.6482 10.1084L17.0089 11.0127C17.1479 11.572 17.4425 12.0805 17.8586 12.4793L20.4532 9.77188ZM20.6482 10.1084C20.6801 10.2368 20.675 10.3716 20.6334 10.4972L17.0734 9.31898C16.8923 9.86613 16.87 10.4533 17.0089 11.0127L20.6482 10.1084ZM20.6306 10.5058C20.5908 10.6241 20.5188 10.729 20.4228 10.8088L18.0272 7.92373C17.5877 8.2887 17.2584 8.76885 17.0762 9.3104L20.6306 10.5058ZM20.4228 10.8088C20.3267 10.8885 20.2104 10.94 20.0867 10.9573L19.5651 7.24383C18.9993 7.32333 18.4668 7.55873 18.0272 7.92373L20.4228 10.8088ZM20.0939 10.9563L25.7539 10.1388L25.2179 6.42735L19.5579 7.24487L20.0939 10.9563ZM25.7539 10.1388C26.2462 10.0678 26.7139 9.8786 27.1174 9.58742L24.9227 6.54675C25.0102 6.4837 25.1114 6.44273 25.2179 6.42735L25.7539 10.1388ZM27.1174 9.58742C27.5207 9.29625 27.8477 8.91177 28.0702 8.4668L24.7164 6.78943C24.7646 6.69305 24.8354 6.6098 24.9227 6.54675L27.1174 9.58742ZM28.0729 8.46133L30.5954 3.3764L27.2362 1.70994L24.7137 6.79488L28.0729 8.46133Z" fill="#092557"/>
<path d="M6.20278 26.6652L5.11776 28.1945L5.12251 28.1977L6.20278 26.6652ZM5.72028 25.5002L3.87253 25.182L3.87181 25.1862L5.72028 25.5002ZM1.93533 13.643L0.158124 13.0453L0.154684 13.0557L1.93533 13.643ZM2.90781 12.8355L3.16863 14.6923L3.17596 14.6912L2.90781 12.8355ZM8.56526 12.018L8.30163 10.1617L8.29711 10.1623L8.56526 12.018ZM9.47523 11.363L11.1519 12.2023L11.1546 12.1969L9.47523 11.363ZM12.0002 6.27808L10.3242 5.43743L10.3209 5.44418L12.0002 6.27808ZM13.0799 7.48556C14.1154 7.48848 14.9572 6.65141 14.9602 5.61588C14.9631 4.58038 14.126 3.73853 13.0905 3.73561L13.0799 7.48556ZM14.8663 26.8755C15.7845 27.3542 16.917 26.998 17.3958 26.0797C17.8746 25.1615 17.5183 24.0291 16.6002 23.5503L14.8663 26.8755ZM14.5146 22.4628C14.0722 22.2322 13.5804 22.1117 13.0815 22.1117V25.8617C12.9768 25.8617 12.8738 25.8365 12.781 25.788L14.5146 22.4628ZM13.0815 22.1117C12.5825 22.1117 12.0909 22.2321 11.6485 22.4627L13.3817 25.7882C13.2889 25.8367 13.1861 25.8617 13.0815 25.8617V22.1117ZM11.6485 22.4627L6.61131 25.0875L8.34421 28.4132L13.3817 25.7882L11.6485 22.4627ZM6.61131 25.0875C6.71673 25.0325 6.83441 25.008 6.95306 25.016L6.70361 28.7577C7.27206 28.7955 7.83913 28.6767 8.34421 28.4132L6.61131 25.0875ZM6.95306 25.016C7.07168 25.024 7.18586 25.0642 7.28303 25.1327L5.12251 28.1977C5.58816 28.526 6.13518 28.7197 6.70361 28.7577L6.95306 25.016ZM7.28781 25.1362C7.39373 25.2115 7.47631 25.315 7.52601 25.435L4.06143 26.8697C4.28183 27.402 4.64798 27.8612 5.11776 28.1945L7.28781 25.1362ZM7.52601 25.435C7.57571 25.555 7.59051 25.6865 7.56876 25.8145L3.87181 25.1862C3.77528 25.754 3.84101 26.3377 4.06143 26.8697L7.52601 25.435ZM7.56803 25.8187L8.53553 20.2038L4.84013 19.5664L3.87253 25.182L7.56803 25.8187ZM8.53553 20.2038C8.62026 19.7131 8.58353 19.2097 8.42876 18.7364L4.86451 19.9018C4.82913 19.7937 4.82078 19.6785 4.84013 19.5664L8.53553 20.2038ZM8.42876 18.7364C8.27401 18.2631 8.00581 17.8349 7.64753 17.489L5.04136 20.1853C4.95951 20.1062 4.89986 20.01 4.86451 19.9018L8.42876 18.7364ZM7.64753 17.489L3.53923 13.5131L0.931371 16.2078L5.04136 20.1853L7.64753 17.489ZM3.53923 13.5131C3.63308 13.604 3.69951 13.7195 3.73076 13.8463L0.0896995 14.7435C0.227072 15.301 0.518778 15.8085 0.931371 16.2078L3.53923 13.5131ZM3.73076 13.8463C3.76201 13.9731 3.75688 14.1062 3.71596 14.2302L0.154684 13.0557C-0.025151 13.601 -0.0476733 14.186 0.0896995 14.7435L3.73076 13.8463ZM3.71251 14.2407C3.67271 14.359 3.60073 14.4639 3.50468 14.5437L1.10913 11.6586C0.669563 12.0236 0.340248 12.5038 0.158124 13.0453L3.71251 14.2407ZM3.50468 14.5437C3.40863 14.6234 3.29228 14.6749 3.16863 14.6923L2.64701 10.9788C2.0812 11.0582 1.5487 11.2936 1.10913 11.6586L3.50468 14.5437ZM3.17596 14.6912L8.83341 13.8737L8.29711 10.1623L2.63966 10.9798L3.17596 14.6912ZM8.82888 13.8744C9.32243 13.8043 9.79161 13.6155 10.1962 13.3243L8.00553 10.2808C8.09316 10.2177 8.19476 10.1768 8.30163 10.1617L8.82888 13.8744ZM10.1962 13.3243C10.6008 13.0331 10.9288 12.6481 11.1519 12.2023L7.79858 10.5237C7.84691 10.4272 7.91793 10.3438 8.00553 10.2808L10.1962 13.3243ZM11.1546 12.1969L13.6796 7.11196L10.3209 5.44418L7.79591 10.5291L11.1546 12.1969ZM13.6762 7.11871C13.6207 7.22926 13.5356 7.32216 13.4302 7.38696L11.4653 4.19301C10.9766 4.49366 10.5815 4.92461 10.3242 5.43743L13.6762 7.11871ZM13.4302 7.38696C13.3249 7.45176 13.2036 7.48591 13.0799 7.48556L13.0905 3.73561C12.5168 3.73398 11.954 3.89238 11.4653 4.19301L13.4302 7.38696ZM16.6002 23.5503L14.5146 22.4628L12.781 25.788L14.8663 26.8755L16.6002 23.5503Z" fill="#092557"/>
<path d="M53.7969 26.6652L54.8771 28.1977L54.8819 28.1945L53.7969 26.6652ZM54.2794 25.5002L56.1279 25.1862L56.1271 25.182L54.2794 25.5002ZM53.6544 18.8379L54.9566 20.1869L54.9601 20.1836L53.6544 18.8379ZM58.0644 13.633L59.8451 13.0457L59.8416 13.0353L58.0644 13.633ZM57.0919 12.8255L56.8239 14.6812L56.8311 14.6823L57.0919 12.8255ZM51.4344 12.008L51.7026 10.1523L51.6981 10.1517L51.4344 12.008ZM50.5244 11.353L48.8459 12.1882L48.8479 12.1923L50.5244 11.353ZM47.9996 6.27808L49.6781 5.44286L49.6754 5.43743L47.9996 6.27808ZM46.9091 3.73561C45.8736 3.73853 45.0366 4.58038 45.0396 5.61588C45.0424 6.65141 45.8844 7.48848 46.9199 7.48556L46.9091 3.73561ZM43.3741 23.5635C42.4564 24.0432 42.1011 25.176 42.5809 26.0937C43.0604 27.0115 44.1931 27.3667 45.1109 26.887L43.3741 23.5635ZM47.2186 25.7855C47.1259 25.834 47.0229 25.8592 46.9184 25.8592V22.1092C46.4194 22.1092 45.9279 22.2296 45.4854 22.4602L47.2186 25.7855ZM46.9184 25.8592C46.8136 25.8592 46.7106 25.834 46.6179 25.7855L48.3516 22.4604C47.9094 22.2298 47.4171 22.1092 46.9184 22.1092V25.8592ZM46.6179 25.7855L51.6549 28.4127L53.3891 25.088L48.3516 22.4604L46.6179 25.7855ZM51.6549 28.4127C52.1601 28.6762 52.7276 28.7955 53.2961 28.7577L53.0466 25.016C53.1654 25.008 53.2839 25.033 53.3891 25.088L51.6549 28.4127ZM53.2961 28.7577C53.8646 28.7197 54.4116 28.526 54.8771 28.1977L52.7166 25.1327C52.8139 25.0642 52.9281 25.024 53.0466 25.016L53.2961 28.7577ZM54.8819 28.1945C55.3516 27.8612 55.7179 27.402 55.9384 26.8697L52.4736 25.435C52.5234 25.315 52.6059 25.2115 52.7119 25.1362L54.8819 28.1945ZM55.9384 26.8697C56.1586 26.3377 56.2244 25.754 56.1279 25.1862L52.4309 25.8145C52.4091 25.6865 52.4241 25.555 52.4736 25.435L55.9384 26.8697ZM56.1271 25.182L55.1596 19.567L51.4641 20.2038L52.4316 25.8187L56.1271 25.182ZM55.1596 19.567C55.1789 19.6792 55.1706 19.7937 55.1351 19.9018L51.5709 18.7364C51.4161 19.2097 51.3794 19.7131 51.4641 20.2038L55.1596 19.567ZM55.1351 19.9018C55.0999 20.01 55.0386 20.1078 54.9566 20.1869L52.3521 17.489C51.9939 17.8349 51.7256 18.2631 51.5709 18.7364L55.1351 19.9018ZM54.9601 20.1836L59.0701 16.1962L56.4604 13.5032L52.3489 17.4922L54.9601 20.1836ZM59.0701 16.1962C59.4826 15.7969 59.7726 15.291 59.9101 14.7335L56.2689 13.8363C56.3001 13.7095 56.3666 13.594 56.4604 13.5032L59.0701 16.1962ZM59.9101 14.7335C60.0474 14.176 60.0249 13.591 59.8451 13.0457L56.2839 14.2202C56.2429 14.0962 56.2376 13.9631 56.2689 13.8363L59.9101 14.7335ZM59.8416 13.0353C59.6594 12.4938 59.3301 12.0136 58.8906 11.6486L56.4951 14.5337C56.3989 14.4539 56.3271 14.349 56.2871 14.2307L59.8416 13.0353ZM58.8906 11.6486C58.4511 11.2836 57.9186 11.0482 57.3526 10.9688L56.8311 14.6823C56.7074 14.6649 56.5911 14.6134 56.4951 14.5337L58.8906 11.6486ZM57.3601 10.9698L51.7026 10.1523L51.1664 13.8637L56.8239 14.6812L57.3601 10.9698ZM51.6981 10.1517C51.8049 10.1668 51.9066 10.2077 51.9941 10.2708L49.8036 13.3143C50.2081 13.6055 50.6774 13.7943 51.1709 13.8644L51.6981 10.1517ZM51.9941 10.2708C52.0819 10.3338 52.1529 10.4172 52.2011 10.5137L48.8479 12.1923C49.0709 12.6381 49.3989 13.0231 49.8036 13.3143L51.9941 10.2708ZM52.2031 10.5178L49.6781 5.44286L46.3209 7.11328L48.8459 12.1882L52.2031 10.5178ZM49.6754 5.43743C49.4181 4.92458 49.0231 4.49363 48.5344 4.19301L46.5696 7.38696C46.4641 7.32216 46.3789 7.22926 46.3236 7.11871L49.6754 5.43743ZM48.5344 4.19301C48.0459 3.89238 47.4829 3.73398 46.9091 3.73561L46.9199 7.48556C46.7961 7.48591 46.6749 7.45176 46.5696 7.38696L48.5344 4.19301ZM45.1109 26.887L47.2186 25.7855L45.4854 22.4602L43.3741 23.5635L45.1109 26.887Z" fill="#092557"/>
<path d="M7.5 33.1252C6.46448 33.1252 5.625 33.9647 5.625 35.0002C5.625 36.0357 6.46448 36.8752 7.5 36.8752V33.1252ZM52.4996 36.8752C53.5351 36.8752 54.3746 36.0357 54.3746 35.0002C54.3746 33.9647 53.5351 33.1252 52.4996 33.1252V36.8752ZM7.5 36.8752H52.4996V33.1252H7.5V36.8752Z" fill="#092557"/>
<path d="M7.5 53.125C6.46448 53.125 5.625 53.9645 5.625 55C5.625 56.0355 6.46448 56.875 7.5 56.875V53.125ZM52.4996 56.875C53.5351 56.875 54.3746 56.0355 54.3746 55C54.3746 53.9645 53.5351 53.125 52.4996 53.125V56.875ZM7.5 56.875H52.4996V53.125H7.5V56.875Z" fill="#092557"/>
<path d="M7.5 43.1252C6.46448 43.1252 5.625 43.9647 5.625 45.0002C5.625 46.0357 6.46448 46.8752 7.5 46.8752V43.1252ZM42.4996 46.8752C43.5351 46.8752 44.3746 46.0357 44.3746 45.0002C44.3746 43.9647 43.5351 43.1252 42.4996 43.1252V46.8752ZM7.5 46.8752H42.4996V43.1252H7.5V46.8752Z" fill="#092557"/>
</svg>
