<svg width="60" height="60" viewBox="0 0 60 60" fill="none" xmlns="http://www.w3.org/2000/svg">
<path d="M30.2287 52.8859C42.8524 52.8859 53.0859 42.6524 53.0859 30.0287C53.0859 17.4051 42.8524 7.17163 30.2287 7.17163C17.6051 7.17163 7.37164 17.4051 7.37164 30.0287C7.37164 42.6524 17.6051 52.8859 30.2287 52.8859Z" fill="url(#paint0_radial_69_1840)"/>
<path opacity="0.5" d="M30.2287 52.8859C42.8524 52.8859 53.0859 42.6524 53.0859 30.0287C53.0859 17.4051 42.8524 7.17163 30.2287 7.17163C17.6051 7.17163 7.37164 17.4051 7.37164 30.0287C7.37164 42.6524 17.6051 52.8859 30.2287 52.8859Z" fill="url(#paint1_radial_69_1840)"/>
<path d="M25.243 21.6857C25.3717 20.7714 24.4573 20.0714 22.7716 19.8571C21.3288 19.6714 18.0859 20.0286 15.5288 22.5285C15.0574 22.9857 15.6431 23.3571 16.0717 23.0714C17.5573 22.1142 21.3288 21.1428 24.0716 21.8142C25.186 22.1 25.243 21.6857 25.243 21.6857Z" fill="url(#paint2_linear_69_1840)"/>
<path d="M35.2145 21.6857C35.086 20.7714 36.0002 20.0714 37.6859 19.8571C39.1288 19.6714 42.3717 20.0286 44.9288 22.5285C45.4002 22.9857 44.8145 23.3571 44.386 23.0714C42.9002 22.1142 39.1288 21.1428 36.3859 21.8142C35.2573 22.1 35.2145 21.6857 35.2145 21.6857Z" fill="url(#paint3_linear_69_1840)"/>
<path d="M30.2287 52.8859C42.8524 52.8859 53.0859 42.6524 53.0859 30.0287C53.0859 17.4051 42.8524 7.17163 30.2287 7.17163C17.6051 7.17163 7.37164 17.4051 7.37164 30.0287C7.37164 42.6524 17.6051 52.8859 30.2287 52.8859Z" fill="url(#paint4_radial_69_1840)"/>
<path opacity="0.5" d="M30.2287 52.8859C42.8524 52.8859 53.0859 42.6524 53.0859 30.0287C53.0859 17.4051 42.8524 7.17163 30.2287 7.17163C17.6051 7.17163 7.37164 17.4051 7.37164 30.0287C7.37164 42.6524 17.6051 52.8859 30.2287 52.8859Z" fill="url(#paint5_radial_69_1840)"/>
<path opacity="0.75" d="M30.2287 52.8859C42.8524 52.8859 53.0859 42.6524 53.0859 30.0287C53.0859 17.4051 42.8524 7.17163 30.2287 7.17163C17.6051 7.17163 7.37164 17.4051 7.37164 30.0287C7.37164 42.6524 17.6051 52.8859 30.2287 52.8859Z" fill="url(#paint6_radial_69_1840)"/>
<path opacity="0.4" d="M25.6287 46.0573C28.5085 46.0573 30.843 43.7227 30.843 40.843C30.843 37.9632 28.5085 35.6287 25.6287 35.6287C22.749 35.6287 20.4144 37.9632 20.4144 40.843C20.4144 43.7227 22.749 46.0573 25.6287 46.0573Z" fill="url(#paint7_radial_69_1840)"/>
<path d="M30.7 43.4999C31.5047 43.4999 32.1571 42.6556 32.1571 41.6142C32.1571 40.5727 31.5047 39.7285 30.7 39.7285C29.8952 39.7285 29.2429 40.5727 29.2429 41.6142C29.2429 42.6556 29.8952 43.4999 30.7 43.4999Z" fill="url(#paint8_linear_69_1840)"/>
<path d="M51 34.3145C51.0857 35.1002 50.5714 36.5002 49.7571 37.4144C49.1429 38.1145 48.2857 38.3859 47.4286 38.2288C47.2571 38.2002 47.1 38.1573 46.9286 38.0859C45.8285 37.6288 44.7857 36.8288 43.6714 37.0002L36.6 38.0288C35.6571 38.1716 34.7429 38.4145 33.8571 38.7716L30.1428 40.7002L30.3428 42.0431L34.4429 42.8288C35.4 42.9287 36.3428 42.9002 37.2857 42.7716L46.1857 41.4716L48.7428 40.643L52.0571 38.1287C52.8143 37.4859 52.8 36.0716 52.0286 35.343L51 34.3145Z" fill="url(#paint9_linear_69_1840)"/>
<path d="M36.0571 38.1287C35.3143 38.2715 34.5856 38.4857 33.8714 38.7857L30.1571 40.7144L30.3571 42.0572L34.4571 42.8429C35.2142 42.9143 35.9857 42.9143 36.7285 42.8429C36.3571 42.7715 35.9285 41.8001 35.7571 40.5858C35.5857 39.3429 35.7142 38.3 36.0571 38.1287Z" fill="url(#paint10_linear_69_1840)"/>
<path d="M51 34.3145C51.0857 35.1002 50.5714 36.5002 49.7571 37.4144C49.1429 38.1145 48.2857 38.3859 47.4285 38.2288C47.2571 38.2002 47.1 38.1573 46.9286 38.0859C45.8285 37.6288 44.7857 36.8288 43.6714 37.0002L36.6 38.0288C35.6571 38.1716 34.7429 38.4145 33.8571 38.7716L30.1428 40.7002L30.3428 42.0431L34.4429 42.8288C35.4 42.9287 36.3428 42.9002 37.2857 42.7716L45.7286 41.543L48.2143 41.0288L52.0428 38.1431C52.8 37.5002 52.7857 36.0859 52.0142 35.3573L51 34.3145Z" fill="url(#paint11_linear_69_1840)"/>
<path d="M45.7429 41.5431C50.5 40.8573 55.2 39.6573 54.1857 33.4002C53.4571 28.8573 46.5428 28.443 46.1572 31.6287C46.6571 31.0859 47.3857 29.9859 47.9143 29.9716C50.3857 29.8859 51.1429 32.7288 51.1857 34.2573C51.2714 38.0859 48.1 41.2002 45.7429 41.5431Z" fill="url(#paint12_linear_69_1840)"/>
<path d="M50.1856 32.2286C50.8427 32.4429 51.0142 33.4858 50.9998 34.3C50.9998 34.3 51.1856 34.7715 51.057 34.9714L51.157 34.7857C51.157 34.7715 51.1713 34.2571 51.1713 34.2429C51.1285 32.7143 50.3427 29.8429 47.8999 29.9572C45.6713 30.0715 45.8428 33.3 46.457 34.2L46.7999 34.7572L49.4428 34.2715C49.0999 32.5286 49.657 32.0572 50.1856 32.2286Z" fill="url(#paint13_linear_69_1840)"/>
<path d="M46.0856 32.8428C46.1999 33.7428 46.5713 34.5999 46.9571 34.5428C47.3428 34.4856 47.4999 33.6142 47.4285 33.0999L50.7571 33.6C50.8285 34.0713 50.6856 34.8714 50.3285 34.9285L47 34.8714C46.2285 34.8571 46.0856 33.2428 46.0856 32.8428Z" fill="url(#paint14_linear_69_1840)"/>
<path d="M30.7287 41.5574C30.2858 44.9002 27.5858 45.6288 28.1287 44.6716C28.843 43.3716 29.0143 42.5145 29.1715 41.3574C29.3287 40.2002 29.3858 39.3288 29.0429 37.8859C28.7715 36.8145 31.1715 38.2145 30.7287 41.5574Z" fill="#643800"/>
<path d="M29.0286 37.886C29.3857 39.3288 29.3143 40.2003 29.1572 41.3574C29 42.5145 28.8286 43.3716 28.1143 44.6717C27.9286 45.0145 28.1286 45.1431 28.5 45.0288C28.4857 45.0288 28.1286 44.9288 28.4572 44.486C28.9571 43.8288 29.7286 42.8574 29.9143 41.4717C30.1 40.0716 29.6143 38.9431 29.3 38.1717C29.1143 37.6574 29.4857 37.6574 29.4857 37.6574C29.1714 37.4431 28.9429 37.5145 29.0286 37.886Z" fill="url(#paint15_linear_69_1840)"/>
<path opacity="0.75" d="M51 34.3145C51.0857 35.1002 50.5714 36.5002 49.7571 37.4144C49.1429 38.1145 48.2857 38.3859 47.4285 38.2288C47.2571 38.2002 47.1 38.1573 46.9286 38.0859C45.8285 37.6288 44.7857 36.8288 43.6714 37.0002L36.6 38.0288C35.6571 38.1716 34.7429 38.4145 33.8571 38.7716L30.1428 40.7002L30.3428 42.0431L34.4429 42.8288C35.4 42.9287 36.3428 42.9002 37.2857 42.7716L45.7286 41.543L48.2143 41.0288L52.0428 38.1431C52.8 37.5002 52.7857 36.0859 52.0142 35.3573L51 34.3145Z" fill="url(#paint16_radial_69_1840)"/>
<path opacity="0.75" d="M45.7429 41.5431C50.5 40.8573 55.2 39.6573 54.1857 33.4002C53.4571 28.8573 46.5428 28.443 46.1572 31.6287C46.6571 31.0859 47.3857 29.9859 47.9143 29.9716C50.3857 29.8859 51.1429 32.7288 51.1857 34.2573C51.2714 38.0859 48.1 41.2002 45.7429 41.5431Z" fill="url(#paint17_radial_69_1840)"/>
<path d="M19.9 11.3429C20.1144 11.2429 20.1286 10.9429 19.9144 10.8286L17.8144 9.7286L5.24293 3.20005C4.98579 3.07148 3.95722 2.61434 2.80007 3.58577C1.5715 4.6572 1.85722 5.47148 1.94293 5.72862L8.47147 22.6286C8.61435 23.0143 9.1572 23.0001 9.30007 22.6143C10.9 18.0714 17.3715 12.5143 19.9 11.3429Z" fill="url(#paint18_linear_69_1840)"/>
<path d="M17.8287 9.72845L15.2287 8.38558C14.2858 7.95703 6.37153 13.9427 6.57154 17.657L8.08582 21.5713C6.27154 16.9141 16.5572 9.0713 17.8287 9.72845Z" fill="url(#paint19_linear_69_1840)"/>
<path d="M12.5857 7.02884L12.0001 6.71455L9.9858 5.6717C9.14295 5.60027 4.42863 9.21458 4.24292 11.6574L5.50006 14.886C5.21434 11.5003 11.7286 6.5717 12.5857 7.02884Z" fill="url(#paint20_linear_69_1840)"/>
<path d="M5.40001 3.30005C4.65715 3.57147 2.72859 5.04291 2.18573 6.32862L3.50001 9.74291C2.70001 7.65716 6.87144 4.51434 7.75717 4.51434L5.40001 3.30005Z" fill="url(#paint21_linear_69_1840)"/>
<path opacity="0.75" d="M19.9 11.3429C20.1144 11.2429 20.1286 10.9429 19.9144 10.8286L17.8144 9.7286L5.24293 3.20005C4.98579 3.07148 3.95722 2.61434 2.80007 3.58577C1.5715 4.6572 1.85722 5.47148 1.94293 5.72862L8.47147 22.6286C8.61435 23.0143 9.1572 23.0001 9.30007 22.6143C10.9 18.0714 17.3715 12.5143 19.9 11.3429Z" fill="url(#paint22_radial_69_1840)"/>
<path opacity="0.75" d="M19.9 11.3429C20.1144 11.2429 20.1286 10.9429 19.9144 10.8286L17.8144 9.7286L5.24293 3.20005C4.98579 3.07148 3.95722 2.61434 2.80007 3.58577C1.5715 4.6572 1.85722 5.47148 1.94293 5.72862L8.47147 22.6286C8.61435 23.0143 9.1572 23.0001 9.30007 22.6143C10.9 18.0714 17.3715 12.5143 19.9 11.3429Z" fill="url(#paint23_radial_69_1840)"/>
<path opacity="0.75" d="M19.9 11.3429C20.1144 11.2429 20.1286 10.9429 19.9144 10.8286L17.8144 9.7286L5.24293 3.20005C4.98579 3.07148 3.95722 2.61434 2.80007 3.58577C1.5715 4.6572 1.85722 5.47148 1.94293 5.72862L8.47147 22.6286C8.61435 23.0143 9.1572 23.0001 9.30007 22.6143C10.9 18.0714 17.3715 12.5143 19.9 11.3429Z" fill="url(#paint24_radial_69_1840)"/>
<path d="M24.043 26.3429C22.4572 25.3572 20.4144 25.4714 18.9286 26.5858C18.1715 27.1572 17.4286 28.0286 16.9858 29.3858C16.9144 29.6143 16.8572 29.8572 16.843 30.1001C16.8144 30.5858 17.1572 31.0286 17.7001 30.5143C21.9286 26.5286 24.8858 30.6286 24.8858 30.6286C25.4572 31.0429 26.043 30.1858 25.9287 29.3858C25.9001 29.1572 25.8715 28.9143 25.8001 28.7C25.4716 27.5429 24.7715 26.8143 24.043 26.3429Z" fill="url(#paint25_radial_69_1840)"/>
<path d="M25.8001 28.7002C25.643 28.2145 25.4429 27.8145 25.2287 27.4716C24.8858 26.9859 24.4715 26.6287 24.043 26.3573C22.4573 25.3716 20.4144 25.4859 18.9287 26.6002C18.1715 27.1716 17.4287 28.043 16.9858 29.4002C16.943 29.5288 16.9144 29.6716 16.8858 29.8144C16.8858 29.8144 16.8858 29.8144 16.8858 29.8288C18.743 26.9287 21.4286 26.7288 21.4286 26.7288C21.4286 26.7288 24.0858 26.5002 25.8858 29.1002C25.8572 28.9573 25.843 28.8288 25.8001 28.7002Z" fill="url(#paint26_linear_69_1840)"/>
<path d="M36.4143 26.3429C38.0001 25.3572 40.0429 25.4714 41.5287 26.5858C42.2858 27.1572 43.0287 28.0286 43.4715 29.3858C43.5429 29.6143 43.6001 29.8572 43.6144 30.1001C43.6429 30.5858 43.3001 31.0286 42.7572 30.5143C38.5287 26.5286 35.5715 30.6286 35.5715 30.6286C35.0001 31.0429 34.4144 30.1858 34.5287 29.3858C34.5573 29.1572 34.5858 28.9143 34.6572 28.7C34.9715 27.5429 35.6715 26.8143 36.4143 26.3429Z" fill="url(#paint27_radial_69_1840)"/>
<path d="M34.643 28.7002C34.8002 28.2145 35.0002 27.8145 35.2145 27.4716C35.5574 26.9859 35.9716 26.6287 36.4002 26.3573C37.9859 25.3716 40.0288 25.4859 41.5145 26.6002C42.2716 27.1716 43.0145 28.043 43.4573 29.4002C43.5002 29.5288 43.5287 29.6716 43.5573 29.8144C43.5573 29.8144 43.5573 29.8144 43.5573 29.8288C41.7002 26.9287 39.0145 26.7288 39.0145 26.7288C39.0145 26.7288 36.3573 26.5002 34.5573 29.1002C34.5859 28.9573 34.6145 28.8145 34.643 28.7002Z" fill="url(#paint28_linear_69_1840)"/>
<path d="M35.5715 42.8856C35.2144 42.7856 34.843 41.857 34.6715 40.7142C34.5144 39.6285 34.6144 38.6856 34.8858 38.4285C34.543 38.5284 34.2001 38.657 33.8715 38.7856L33.8287 38.7999C33.6144 39.1142 33.5001 39.8999 33.6286 40.8427C33.7572 41.757 34.1001 42.5142 34.3858 42.8142L34.4572 42.8284C34.8286 42.8713 35.2 42.8856 35.5715 42.8856Z" fill="url(#paint29_linear_69_1840)"/>
<g opacity="0.25">
<path opacity="0.25" d="M12.0571 23.9287C12.7999 26.0716 10.9285 26.6287 11.5428 28.0145L13.6285 27.4715C13.0142 26.0858 14.6428 25.5573 13.9856 23.343L12.0571 23.9287Z" fill="url(#paint30_radial_69_1840)"/>
<path opacity="0.25" d="M47.357 17.0002C44.4998 18.6145 43.7713 15.2859 41.8427 16.0288L42.4427 18.9001C44.357 18.1716 45.1713 21.2859 48.0284 19.6716L47.357 17.0002Z" fill="url(#paint31_radial_69_1840)"/>
<path opacity="0.25" d="M24.1285 13.6858C24.4519 13.6858 24.7142 13.4236 24.7142 13.1002C24.7142 12.7767 24.4519 12.5144 24.1285 12.5144C23.805 12.5144 23.5428 12.7767 23.5428 13.1002C23.5428 13.4236 23.805 13.6858 24.1285 13.6858Z" fill="url(#paint32_radial_69_1840)"/>
<path opacity="0.25" d="M39.157 13.4287C39.4805 13.4287 39.7428 13.1665 39.7428 12.8431C39.7428 12.5196 39.4805 12.2573 39.157 12.2573C38.8335 12.2573 38.5714 12.5196 38.5714 12.8431C38.5714 13.1665 38.8335 13.4287 39.157 13.4287Z" fill="url(#paint33_radial_69_1840)"/>
<path opacity="0.25" d="M49.7284 27.4857C50.0519 27.4857 50.3142 27.2234 50.3142 26.9C50.3142 26.5765 50.0519 26.3142 49.7284 26.3142C49.405 26.3142 49.1428 26.5765 49.1428 26.9C49.1428 27.2234 49.405 27.4857 49.7284 27.4857Z" fill="url(#paint34_radial_69_1840)"/>
<path opacity="0.25" d="M13.0713 35.9432C13.3947 35.9432 13.657 35.6809 13.657 35.3574C13.657 35.0339 13.3947 34.7717 13.0713 34.7717C12.7478 34.7717 12.4856 35.0339 12.4856 35.3574C12.4856 35.6809 12.7478 35.9432 13.0713 35.9432Z" fill="url(#paint35_radial_69_1840)"/>
<path opacity="0.25" d="M40.9141 48.0144C41.2376 48.0144 41.4999 47.7522 41.4999 47.4288C41.4999 47.1053 41.2376 46.843 40.9141 46.843C40.5906 46.843 40.3284 47.1053 40.3284 47.4288C40.3284 47.7522 40.5906 48.0144 40.9141 48.0144Z" fill="url(#paint36_radial_69_1840)"/>
<path opacity="0.25" d="M39.1285 33.7571C39.4519 33.7571 39.7142 33.4949 39.7142 33.1714C39.7142 32.848 39.4519 32.5857 39.1285 32.5857C38.805 32.5857 38.5428 32.848 38.5428 33.1714C38.5428 33.4949 38.805 33.7571 39.1285 33.7571Z" fill="url(#paint37_radial_69_1840)"/>
<path opacity="0.25" d="M33.2857 13.9858C33.2285 13.0572 33.1428 12.0858 33.0285 11.0715C29.4285 13.3287 28.0571 16.0716 28.0571 16.0716L29.1285 18.3858C30.2571 16.2429 32.1285 14.7573 33.2857 13.9858Z" fill="url(#paint38_radial_69_1840)"/>
</g>
<path d="M11.7428 22.6717C12.4857 24.8145 10.6143 25.3717 11.2286 26.7574L13.3143 26.2145C12.7 24.8288 14.3286 24.3002 13.6715 22.0859L11.7428 22.6717Z" fill="url(#paint39_linear_69_1840)"/>
<path d="M47.3574 15.8429C44.5002 17.4572 43.7716 14.1287 41.8431 14.8715L42.4431 17.743C44.3574 17.0144 45.1717 20.1287 48.0288 18.5144L47.3574 15.8429Z" fill="url(#paint40_linear_69_1840)"/>
<path d="M48.4143 12.5716C48.7378 12.5716 49 12.3094 49 11.9859C49 11.6624 48.7378 11.4001 48.4143 11.4001C48.0908 11.4001 47.8286 11.6624 47.8286 11.9859C47.8286 12.3094 48.0908 12.5716 48.4143 12.5716Z" fill="url(#paint41_linear_69_1840)"/>
<path d="M24.1287 12.8289C24.4522 12.8289 24.7144 12.5666 24.7144 12.2431C24.7144 11.9197 24.4522 11.6575 24.1287 11.6575C23.8052 11.6575 23.543 11.9197 23.543 12.2431C23.543 12.5666 23.8052 12.8289 24.1287 12.8289Z" fill="url(#paint42_linear_69_1840)"/>
<path d="M39.1573 12.5716C39.4808 12.5716 39.743 12.3094 39.743 11.9859C39.743 11.6624 39.4808 11.4001 39.1573 11.4001C38.8338 11.4001 38.5715 11.6624 38.5715 11.9859C38.5715 12.3094 38.8338 12.5716 39.1573 12.5716Z" fill="url(#paint43_linear_69_1840)"/>
<path d="M49.7287 26.6287C50.0522 26.6287 50.3144 26.3664 50.3144 26.0429C50.3144 25.7195 50.0522 25.4573 49.7287 25.4573C49.4052 25.4573 49.1429 25.7195 49.1429 26.0429C49.1429 26.3664 49.4052 26.6287 49.7287 26.6287Z" fill="url(#paint44_linear_69_1840)"/>
<path d="M12.943 35.2715C13.2665 35.2715 13.5287 35.0093 13.5287 34.6858C13.5287 34.3624 13.2665 34.1001 12.943 34.1001C12.6195 34.1001 12.3572 34.3624 12.3572 34.6858C12.3572 35.0093 12.6195 35.2715 12.943 35.2715Z" fill="url(#paint45_linear_69_1840)"/>
<path d="M39.0573 32.9576C39.3808 32.9576 39.643 32.6953 39.643 32.3718C39.643 32.0483 39.3808 31.7861 39.0573 31.7861C38.7338 31.7861 38.4716 32.0483 38.4716 32.3718C38.4716 32.6953 38.7338 32.9576 39.0573 32.9576Z" fill="url(#paint46_linear_69_1840)"/>
<path d="M8.30009 43.6429C8.62364 43.6429 8.88584 43.3807 8.88584 43.0572C8.88584 42.7337 8.62364 42.4714 8.30009 42.4714C7.97662 42.4714 7.71442 42.7337 7.71442 43.0572C7.71442 43.3807 7.97662 43.6429 8.30009 43.6429Z" fill="url(#paint47_linear_69_1840)"/>
<path d="M33.5859 11.9431C33.5288 11.0145 33.4431 10.0431 33.3288 9.02881C29.7288 11.286 28.3574 14.0288 28.3574 14.0288L29.4288 16.3431C30.5573 14.2145 32.4288 12.7145 33.5859 11.9431Z" fill="url(#paint48_linear_69_1840)"/>
<path d="M22.3002 39.4856C22.6287 45.8285 17.443 47.4714 15.8859 47.8284C16.7002 48.4856 17.5573 49.0856 18.4716 49.6284C21.3002 48.4428 25.9573 45.457 24.3859 38.8713C23.6145 39.0714 22.9145 39.2713 22.3002 39.4856Z" fill="url(#paint49_radial_69_1840)"/>
<path d="M20.8144 38.3998C21.2001 45.857 13.9572 46.8284 13.9572 46.8284L14.9715 49.2141C14.9715 49.2141 25.1001 47.057 22.9001 37.7998C22.1287 37.9855 21.4286 38.1855 20.8144 38.3998Z" fill="url(#paint50_linear_69_1840)"/>
<defs>
<radialGradient id="paint0_radial_69_1840" cx="0" cy="0" r="1" gradientUnits="userSpaceOnUse" gradientTransform="translate(25.726 20.7624) scale(27.5742 27.5742)">
<stop stop-color="#FFE030"/>
<stop offset="1" stop-color="#FFB92E"/>
</radialGradient>
<radialGradient id="paint1_radial_69_1840" cx="0" cy="0" r="1" gradientUnits="userSpaceOnUse" gradientTransform="translate(25.726 20.7624) scale(21.6938 21.6938)">
<stop stop-color="#FFEA5F"/>
<stop offset="1" stop-color="#FFBC47" stop-opacity="0"/>
</radialGradient>
<linearGradient id="paint2_linear_69_1840" x1="20.2547" y1="22.5631" x2="20.575" y2="20.176" gradientUnits="userSpaceOnUse">
<stop offset="0.00132565" stop-color="#3C2200"/>
<stop offset="1" stop-color="#7A4400"/>
</linearGradient>
<linearGradient id="paint3_linear_69_1840" x1="40.1951" y1="22.5624" x2="39.8747" y2="20.1753" gradientUnits="userSpaceOnUse">
<stop offset="0.00132565" stop-color="#3C2200"/>
<stop offset="1" stop-color="#7A4400"/>
</linearGradient>
<radialGradient id="paint4_radial_69_1840" cx="0" cy="0" r="1" gradientUnits="userSpaceOnUse" gradientTransform="translate(13.0599 15.2388) rotate(-45.5348) scale(17.5381 7.20522)">
<stop stop-color="#EB672A" stop-opacity="0.5"/>
<stop offset="0.3025" stop-color="#E36521" stop-opacity="0.3422"/>
<stop offset="0.7868" stop-color="#CC600A" stop-opacity="0.0897045"/>
<stop offset="0.9589" stop-color="#C25E00" stop-opacity="0"/>
</radialGradient>
<radialGradient id="paint5_radial_69_1840" cx="0" cy="0" r="1" gradientUnits="userSpaceOnUse" gradientTransform="translate(17.7611 35.712) rotate(-2.7703) scale(9.61425 7.60725)">
<stop stop-color="#FF4C00"/>
<stop offset="0.1995" stop-color="#F94C0E" stop-opacity="0.8005"/>
<stop offset="0.7145" stop-color="#EC4A2E" stop-opacity="0.2855"/>
<stop offset="1" stop-color="#E74A3A" stop-opacity="0"/>
</radialGradient>
<radialGradient id="paint6_radial_69_1840" cx="0" cy="0" r="1" gradientUnits="userSpaceOnUse" gradientTransform="translate(42.4648 42.7724) rotate(-0.40159) scale(15.2864 3.47003)">
<stop stop-color="#7A4400" stop-opacity="0.5"/>
<stop offset="0.5833" stop-color="#894D00" stop-opacity="0.2069"/>
<stop offset="0.995" stop-color="#975500" stop-opacity="0"/>
</radialGradient>
<radialGradient id="paint7_radial_69_1840" cx="0" cy="0" r="1" gradientUnits="userSpaceOnUse" gradientTransform="translate(27.2841 41.8314) rotate(4.55396) scale(5.39776 3.81655)">
<stop stop-color="white" stop-opacity="0.75"/>
<stop offset="1" stop-color="white" stop-opacity="0"/>
</radialGradient>
<linearGradient id="paint8_linear_69_1840" x1="29.2347" y1="41.6091" x2="32.1547" y2="41.6091" gradientUnits="userSpaceOnUse">
<stop offset="0.00132565" stop-color="#3C2200"/>
<stop offset="1" stop-color="#512D00"/>
</linearGradient>
<linearGradient id="paint9_linear_69_1840" x1="41.3811" y1="38.6876" x2="42.3875" y2="45.5938" gradientUnits="userSpaceOnUse">
<stop stop-color="#FF40BF"/>
<stop offset="0.8932" stop-color="#7000A3"/>
</linearGradient>
<linearGradient id="paint10_linear_69_1840" x1="32.8959" y1="38.0217" x2="33.5858" y2="42.7565" gradientUnits="userSpaceOnUse">
<stop offset="0.2544" stop-color="#D1F2FF"/>
<stop offset="1" stop-color="#17BBFE"/>
</linearGradient>
<linearGradient id="paint11_linear_69_1840" x1="43.122" y1="39.0119" x2="53.9967" y2="34.3445" gradientUnits="userSpaceOnUse">
<stop stop-color="#7000A3" stop-opacity="0"/>
<stop offset="0.2242" stop-color="#530078" stop-opacity="0.2242"/>
<stop offset="0.5925" stop-color="#260038" stop-opacity="0.5925"/>
<stop offset="0.8613" stop-color="#0B000F" stop-opacity="0.8613"/>
<stop offset="1"/>
</linearGradient>
<linearGradient id="paint12_linear_69_1840" x1="52.4777" y1="46.276" x2="49.1782" y2="34.6931" gradientUnits="userSpaceOnUse">
<stop/>
<stop offset="0.1488" stop-color="#27002D"/>
<stop offset="0.4631" stop-color="#760086"/>
<stop offset="0.7193" stop-color="#B000C7"/>
<stop offset="0.9045" stop-color="#D300F0"/>
<stop offset="1" stop-color="#E100FF"/>
</linearGradient>
<linearGradient id="paint13_linear_69_1840" x1="49.1434" y1="28.248" x2="48.0612" y2="38.8909" gradientUnits="userSpaceOnUse">
<stop/>
<stop offset="0.1488" stop-color="#27002D"/>
<stop offset="0.4631" stop-color="#760086"/>
<stop offset="0.7193" stop-color="#B000C7"/>
<stop offset="0.9045" stop-color="#D300F0"/>
<stop offset="1" stop-color="#E100FF"/>
</linearGradient>
<linearGradient id="paint14_linear_69_1840" x1="48.8963" y1="36.6564" x2="48.4413" y2="33.5339" gradientUnits="userSpaceOnUse">
<stop stop-color="#7000A3"/>
<stop offset="0.4469" stop-color="#A900D2"/>
<stop offset="0.8117" stop-color="#D200F2"/>
<stop offset="1" stop-color="#E100FF"/>
</linearGradient>
<linearGradient id="paint15_linear_69_1840" x1="27.399" y1="41.1209" x2="29.8403" y2="41.4471" gradientUnits="userSpaceOnUse">
<stop offset="0.00132565" stop-color="#3C2200"/>
<stop offset="1" stop-color="#512D00"/>
</linearGradient>
<radialGradient id="paint16_radial_69_1840" cx="0" cy="0" r="1" gradientUnits="userSpaceOnUse" gradientTransform="translate(39.7372 39.086) rotate(-8.28692) scale(8.26628 0.92184)">
<stop stop-color="white" stop-opacity="0.5"/>
<stop offset="1" stop-color="white" stop-opacity="0"/>
</radialGradient>
<radialGradient id="paint17_radial_69_1840" cx="0" cy="0" r="1" gradientUnits="userSpaceOnUse" gradientTransform="translate(52.7707 32.7069) rotate(77.7176) scale(4.15961 0.93087)">
<stop stop-color="white" stop-opacity="0.5"/>
<stop offset="1" stop-color="white" stop-opacity="0"/>
</radialGradient>
<linearGradient id="paint18_linear_69_1840" x1="16.4596" y1="5.85198" x2="3.2176" y2="15.1423" gradientUnits="userSpaceOnUse">
<stop offset="0.2544" stop-color="#D1F2FF"/>
<stop offset="1" stop-color="#17BBFE"/>
</linearGradient>
<linearGradient id="paint19_linear_69_1840" x1="17.6073" y1="9.50705" x2="6.03981" y2="19.1778" gradientUnits="userSpaceOnUse">
<stop stop-color="#FF40BF"/>
<stop offset="0.7456" stop-color="#7000A3"/>
</linearGradient>
<linearGradient id="paint20_linear_69_1840" x1="12.0172" y1="6.38343" x2="3.97043" y2="13.1107" gradientUnits="userSpaceOnUse">
<stop stop-color="#FF40BF"/>
<stop offset="0.7456" stop-color="#7000A3"/>
</linearGradient>
<linearGradient id="paint21_linear_69_1840" x1="7.27929" y1="3.98929" x2="2.20486" y2="8.23166" gradientUnits="userSpaceOnUse">
<stop stop-color="#FF40BF"/>
<stop offset="0.7456" stop-color="#7000A3"/>
</linearGradient>
<radialGradient id="paint22_radial_69_1840" cx="0" cy="0" r="1" gradientUnits="userSpaceOnUse" gradientTransform="translate(6.36958 12.6875) rotate(65.3021) scale(9.48525 2.33603)">
<stop stop-color="#440063" stop-opacity="0.75"/>
<stop offset="1" stop-color="#420061" stop-opacity="0"/>
</radialGradient>
<radialGradient id="paint23_radial_69_1840" cx="0" cy="0" r="1" gradientUnits="userSpaceOnUse" gradientTransform="translate(10.5244 8.37102) rotate(31.2018) scale(9.4851 2.33634)">
<stop stop-color="white" stop-opacity="0.5"/>
<stop offset="1" stop-color="white" stop-opacity="0"/>
</radialGradient>
<radialGradient id="paint24_radial_69_1840" cx="0" cy="0" r="1" gradientUnits="userSpaceOnUse" gradientTransform="translate(13.5931 20.6731) rotate(30.2004) scale(11.7045 11.9174)">
<stop stop-color="#440063" stop-opacity="0.75"/>
<stop offset="1" stop-color="#420061" stop-opacity="0"/>
</radialGradient>
<radialGradient id="paint25_radial_69_1840" cx="0" cy="0" r="1" gradientUnits="userSpaceOnUse" gradientTransform="translate(21.4386 28.3619) rotate(175.474) scale(3.52634 2.50047)">
<stop offset="0.00132565" stop-color="#7A4400"/>
<stop offset="1" stop-color="#643800"/>
</radialGradient>
<linearGradient id="paint26_linear_69_1840" x1="21.7817" y1="23.9238" x2="21.5018" y2="27.762" gradientUnits="userSpaceOnUse">
<stop offset="0.00132565" stop-color="#3C2200"/>
<stop offset="1" stop-color="#512D00"/>
</linearGradient>
<radialGradient id="paint27_radial_69_1840" cx="0" cy="0" r="1" gradientUnits="userSpaceOnUse" gradientTransform="translate(39.0057 28.3619) rotate(4.52557) scale(3.52634 2.50047)">
<stop offset="0.00132565" stop-color="#7A4400"/>
<stop offset="1" stop-color="#643800"/>
</radialGradient>
<linearGradient id="paint28_linear_69_1840" x1="38.6632" y1="23.9238" x2="38.9431" y2="27.7619" gradientUnits="userSpaceOnUse">
<stop offset="0.00132565" stop-color="#3C2200"/>
<stop offset="1" stop-color="#512D00"/>
</linearGradient>
<linearGradient id="paint29_linear_69_1840" x1="34.2997" y1="39.5953" x2="34.8679" y2="43.9374" gradientUnits="userSpaceOnUse">
<stop stop-color="#FF40BF"/>
<stop offset="0.8932" stop-color="#7000A3"/>
</linearGradient>
<radialGradient id="paint30_radial_69_1840" cx="0" cy="0" r="1" gradientUnits="userSpaceOnUse" gradientTransform="translate(19.0707 15.0896) scale(51.4585 51.4586)">
<stop stop-color="#7A4400" stop-opacity="0.5"/>
<stop offset="0.5833" stop-color="#894D00" stop-opacity="0.2069"/>
<stop offset="0.995" stop-color="#975500" stop-opacity="0"/>
</radialGradient>
<radialGradient id="paint31_radial_69_1840" cx="0" cy="0" r="1" gradientUnits="userSpaceOnUse" gradientTransform="translate(15.4216 10.2812) rotate(0.0419929) scale(70.0144 69.9679)">
<stop stop-color="#7A4400" stop-opacity="0.5"/>
<stop offset="0.5833" stop-color="#894D00" stop-opacity="0.2069"/>
<stop offset="0.995" stop-color="#975500" stop-opacity="0"/>
</radialGradient>
<radialGradient id="paint32_radial_69_1840" cx="0" cy="0" r="1" gradientUnits="userSpaceOnUse" gradientTransform="translate(21.4993 12.9289) scale(51.4587 51.4586)">
<stop stop-color="#7A4400" stop-opacity="0.5"/>
<stop offset="0.5833" stop-color="#894D00" stop-opacity="0.2069"/>
<stop offset="0.995" stop-color="#975500" stop-opacity="0"/>
</radialGradient>
<radialGradient id="paint33_radial_69_1840" cx="0" cy="0" r="1" gradientUnits="userSpaceOnUse" gradientTransform="translate(21.4993 12.9289) scale(51.4585 51.4586)">
<stop stop-color="#7A4400" stop-opacity="0.5"/>
<stop offset="0.5833" stop-color="#894D00" stop-opacity="0.2069"/>
<stop offset="0.995" stop-color="#975500" stop-opacity="0"/>
</radialGradient>
<radialGradient id="paint34_radial_69_1840" cx="0" cy="0" r="1" gradientUnits="userSpaceOnUse" gradientTransform="translate(21.4992 12.9287) scale(51.4588 51.4586)">
<stop stop-color="#7A4400" stop-opacity="0.5"/>
<stop offset="0.5833" stop-color="#894D00" stop-opacity="0.2069"/>
<stop offset="0.995" stop-color="#975500" stop-opacity="0"/>
</radialGradient>
<radialGradient id="paint35_radial_69_1840" cx="0" cy="0" r="1" gradientUnits="userSpaceOnUse" gradientTransform="translate(15.9135 13.7147) scale(51.4587)">
<stop stop-color="#7A4400" stop-opacity="0.5"/>
<stop offset="0.5833" stop-color="#894D00" stop-opacity="0.2069"/>
<stop offset="0.995" stop-color="#975500" stop-opacity="0"/>
</radialGradient>
<radialGradient id="paint36_radial_69_1840" cx="0" cy="0" r="1" gradientUnits="userSpaceOnUse" gradientTransform="translate(21.4991 12.9289) scale(51.4589 51.4585)">
<stop stop-color="#7A4400" stop-opacity="0.5"/>
<stop offset="0.5833" stop-color="#894D00" stop-opacity="0.2069"/>
<stop offset="0.995" stop-color="#975500" stop-opacity="0"/>
</radialGradient>
<radialGradient id="paint37_radial_69_1840" cx="0" cy="0" r="1" gradientUnits="userSpaceOnUse" gradientTransform="translate(23.3564 10.6074) scale(51.4587 51.4584)">
<stop stop-color="#7A4400" stop-opacity="0.5"/>
<stop offset="0.5833" stop-color="#894D00" stop-opacity="0.2069"/>
<stop offset="0.995" stop-color="#975500" stop-opacity="0"/>
</radialGradient>
<radialGradient id="paint38_radial_69_1840" cx="0" cy="0" r="1" gradientUnits="userSpaceOnUse" gradientTransform="translate(18.3464 20.533) rotate(-28.5684) scale(71.2255 71.1665)">
<stop stop-color="#7A4400" stop-opacity="0.5"/>
<stop offset="0.5833" stop-color="#894D00" stop-opacity="0.2069"/>
<stop offset="0.995" stop-color="#975500" stop-opacity="0"/>
</radialGradient>
<linearGradient id="paint39_linear_69_1840" x1="13.2515" y1="25.7494" x2="11.6064" y2="23.0059" gradientUnits="userSpaceOnUse">
<stop stop-color="#FF9214"/>
<stop offset="1" stop-color="#FF4E0D"/>
</linearGradient>
<linearGradient id="paint40_linear_69_1840" x1="51.5186" y1="18.2179" x2="41.9725" y2="16.4235" gradientUnits="userSpaceOnUse">
<stop stop-color="#80DAFE"/>
<stop offset="1" stop-color="#008EE6"/>
</linearGradient>
<linearGradient id="paint41_linear_69_1840" x1="44.9734" y1="11.3308" x2="51.7525" y2="12.6661" gradientUnits="userSpaceOnUse">
<stop stop-color="#FFCB4B"/>
<stop offset="1" stop-color="#E81CA2"/>
</linearGradient>
<linearGradient id="paint42_linear_69_1840" x1="27.5478" y1="12.169" x2="20.5044" y2="12.3421" gradientUnits="userSpaceOnUse">
<stop stop-color="#FBE07A"/>
<stop offset="1" stop-color="#E81CA2"/>
</linearGradient>
<linearGradient id="paint43_linear_69_1840" x1="38.9245" y1="9.2694" x2="39.1625" y2="12.1265" gradientUnits="userSpaceOnUse">
<stop stop-color="#80DAFE"/>
<stop offset="1" stop-color="#008EE6"/>
</linearGradient>
<linearGradient id="paint44_linear_69_1840" x1="50.7049" y1="27.109" x2="48.3354" y2="24.5377" gradientUnits="userSpaceOnUse">
<stop stop-color="#FFCB4B"/>
<stop offset="1" stop-color="#E81CA2"/>
</linearGradient>
<linearGradient id="paint45_linear_69_1840" x1="11.7543" y1="34.4851" x2="13.4192" y2="34.7983" gradientUnits="userSpaceOnUse">
<stop offset="0.2544" stop-color="#9F00E8"/>
<stop offset="1" stop-color="#7000A3"/>
</linearGradient>
<linearGradient id="paint46_linear_69_1840" x1="37.185" y1="34.8275" x2="40.3755" y2="30.6371" gradientUnits="userSpaceOnUse">
<stop stop-color="#80DAFE"/>
<stop offset="1" stop-color="#008EE6"/>
</linearGradient>
<linearGradient id="paint47_linear_69_1840" x1="7.47938" y1="42.7957" x2="11.2969" y2="44.1625" gradientUnits="userSpaceOnUse">
<stop stop-color="#FF9214"/>
<stop offset="1" stop-color="#FF4E0D"/>
</linearGradient>
<linearGradient id="paint48_linear_69_1840" x1="42.0973" y1="5.23869" x2="26.894" y2="15.8642" gradientUnits="userSpaceOnUse">
<stop stop-color="#FBE07A"/>
<stop offset="1" stop-color="#E81CA2"/>
</linearGradient>
<radialGradient id="paint49_radial_69_1840" cx="0" cy="0" r="1" gradientUnits="userSpaceOnUse" gradientTransform="translate(6.23107 37.8825) scale(24.303 24.303)">
<stop stop-color="#7A4400" stop-opacity="0.5"/>
<stop offset="0.5833" stop-color="#894D00" stop-opacity="0.2069"/>
<stop offset="0.995" stop-color="#975500" stop-opacity="0"/>
</radialGradient>
<linearGradient id="paint50_linear_69_1840" x1="21.1232" y1="33.8507" x2="14.924" y2="58.9539" gradientUnits="userSpaceOnUse">
<stop stop-color="#F78174"/>
<stop offset="0.3893" stop-color="#8800C7"/>
<stop offset="1" stop-color="#3640FF"/>
</linearGradient>
</defs>
</svg>
