<svg width="20" height="20" viewBox="0 0 20 20" fill="none" xmlns="http://www.w3.org/2000/svg">
<path d="M15 3.125H13.75V2.5C13.75 2.33424 13.6842 2.17527 13.5669 2.05806C13.4497 1.94085 13.2908 1.875 13.125 1.875H6.875C6.70924 1.875 6.55027 1.94085 6.43306 2.05806C6.31585 2.17527 6.25 2.33424 6.25 2.5V3.125H5C4.83424 3.125 4.67527 3.19085 4.55806 3.30806C4.44085 3.42527 4.375 3.58424 4.375 3.75V17.5C4.375 17.6658 4.44085 17.8247 4.55806 17.9419C4.67527 18.0592 4.83424 18.125 5 18.125H15C15.1658 18.125 15.3247 18.0592 15.4419 17.9419C15.5592 17.8247 15.625 17.6658 15.625 17.5V3.75C15.625 3.58424 15.5592 3.42527 15.4419 3.30806C15.3247 3.19085 15.1658 3.125 15 3.125ZM7.5 3.125H12.5V4.375H7.5V3.125ZM14.375 16.875H5.625V4.375H6.25V5C6.25 5.16576 6.31585 5.32473 6.43306 5.44194C6.55027 5.55915 6.70924 5.625 6.875 5.625H13.125C13.2908 5.625 13.4497 5.55915 13.5669 5.44194C13.6842 5.32473 13.75 5.16576 13.75 5V4.375H14.375V16.875ZM13.125 7.5C13.125 7.66576 13.0592 7.82473 12.9419 7.94194C12.8247 8.05915 12.6658 8.125 12.5 8.125H7.5C7.33424 8.125 7.17527 8.05915 7.05806 7.94194C6.94085 7.82473 6.875 7.66576 6.875 7.5C6.875 7.33424 6.94085 7.17527 7.05806 7.05806C7.17527 6.94085 7.33424 6.875 7.5 6.875H12.5C12.6658 6.875 12.8247 6.94085 12.9419 7.05806C13.0592 7.17527 13.125 7.33424 13.125 7.5ZM13.125 10C13.125 10.1658 13.0592 10.3247 12.9419 10.4419C12.8247 10.5592 12.6658 10.625 12.5 10.625H7.5C7.33424 10.625 7.17527 10.5592 7.05806 10.4419C6.94085 10.3247 6.875 10.1658 6.875 10C6.875 9.83424 6.94085 9.67527 7.05806 9.55806C7.17527 9.44085 7.33424 9.375 7.5 9.375H12.5C12.6658 9.375 12.8247 9.44085 12.9419 9.55806C13.0592 9.67527 13.125 9.83424 13.125 10ZM13.125 12.5C13.125 12.6658 13.0592 12.8247 12.9419 12.9419C12.8247 13.0592 12.6658 13.125 12.5 13.125H7.5C7.33424 13.125 7.17527 13.0592 7.05806 12.9419C6.94085 12.8247 6.875 12.6658 6.875 12.5C6.875 12.3342 6.94085 12.1753 7.05806 12.0581C7.17527 11.9408 7.33424 11.875 7.5 11.875H12.5C12.6658 11.875 12.8247 11.9408 12.9419 12.0581C13.0592 12.1753 13.125 12.3342 13.125 12.5ZM13.125 15C13.125 15.1658 13.0592 15.3247 12.9419 15.4419C12.8247 15.5592 12.6658 15.625 12.5 15.625H7.5C7.33424 15.625 7.17527 15.5592 7.05806 15.4419C6.94085 15.3247 6.875 15.1658 6.875 15C6.875 14.8342 6.94085 14.6753 7.05806 14.5581C7.17527 14.4408 7.33424 14.375 7.5 14.375H12.5C12.6658 14.375 12.8247 14.4408 12.9419 14.5581C13.0592 14.6753 13.125 14.8342 13.125 15Z" fill="#AF87DD"/>
</svg>
