<svg width="60" height="60" viewBox="0 0 60 60" fill="none" xmlns="http://www.w3.org/2000/svg">
<path d="M30.3562 53.2125C42.9794 53.2125 53.2125 42.9794 53.2125 30.3562C53.2125 17.7331 42.9794 7.5 30.3562 7.5C17.7331 7.5 7.5 17.7331 7.5 30.3562C7.5 42.9794 17.7331 53.2125 30.3562 53.2125Z" fill="url(#paint0_radial_69_1816)"/>
<path opacity="0.5" d="M30.3562 53.2125C42.9794 53.2125 53.2125 42.9794 53.2125 30.3562C53.2125 17.7331 42.9794 7.5 30.3562 7.5C17.7331 7.5 7.5 17.7331 7.5 30.3562C7.5 42.9794 17.7331 53.2125 30.3562 53.2125Z" fill="url(#paint1_radial_69_1816)"/>
<path opacity="0.24" d="M30.3562 53.2125C42.9794 53.2125 53.2125 42.9794 53.2125 30.3562C53.2125 17.7331 42.9794 7.5 30.3562 7.5C17.7331 7.5 7.5 17.7331 7.5 30.3562C7.5 42.9794 17.7331 53.2125 30.3562 53.2125Z" fill="url(#paint2_radial_69_1816)"/>
<path opacity="0.24" d="M30.3562 53.2125C42.9794 53.2125 53.2125 42.9794 53.2125 30.3562C53.2125 17.7331 42.9794 7.5 30.3562 7.5C17.7331 7.5 7.5 17.7331 7.5 30.3562C7.5 42.9794 17.7331 53.2125 30.3562 53.2125Z" fill="url(#paint3_radial_69_1816)"/>
<path d="M21.2775 30.165C21.2775 30.165 17.663 30.165 16.398 27.5604C16.3236 27.401 16.2704 27.2202 16.2491 27.0396C16.2172 26.6781 16.5042 26.2635 17.1846 26.5506C21.3306 28.3152 23.4887 27.0714 25.1046 26.1997C25.7318 25.8595 26.3803 26.4655 26.2421 27.0714C26.1996 27.2522 26.1783 27.4329 26.1039 27.5924C24.8919 30.1863 21.2775 30.165 21.2775 30.165Z" fill="url(#paint4_radial_69_1816)"/>
<path d="M24.2543 19.5554C24.233 18.6411 23.2231 18.099 21.5221 18.1415C20.0764 18.184 16.919 19.0664 14.8141 21.9473C14.4208 22.4789 15.0586 22.7446 15.4414 22.3938C16.7489 21.2138 20.3102 19.6404 23.1274 19.8743C24.2649 19.9593 24.2543 19.5554 24.2543 19.5554Z" fill="url(#paint5_linear_69_1816)"/>
<path d="M40.4555 37.0431C40.2642 37.0113 40.0729 37.0644 39.9346 37.2026C37.4789 39.5095 33.6943 40.7427 30.8453 40.7427H30.3562H29.8672C27.0182 40.7427 23.223 39.5095 20.7779 37.2026C20.6397 37.075 20.4484 37.0113 20.257 37.0431C20.0656 37.075 19.9594 37.2983 20.055 37.479C22.1493 41.1041 26.0295 43.3578 30.2393 43.3578H30.3669H30.4945C34.7043 43.3578 38.5845 41.1147 40.6788 37.479C40.7638 37.2983 40.6576 37.0857 40.4555 37.0431Z" fill="#643800"/>
<path d="M40.4555 37.0431C40.2642 37.0113 40.0729 37.0644 39.9346 37.2026C37.4789 39.5095 33.6943 40.7427 30.8453 40.7427H30.3562H29.8672C27.0182 40.7427 23.223 39.5095 20.7779 37.2026C20.6397 37.075 20.4484 37.0113 20.257 37.0431C20.0656 37.075 19.9594 37.2983 20.055 37.479C20.0763 37.5109 20.0975 37.5534 20.1188 37.5853C20.3208 37.4684 20.5228 37.362 20.746 37.6066C23.0742 40.2218 26.5291 41.7845 30.2287 41.7845H30.3562H30.4838C34.2046 41.7845 37.6809 40.2005 40.009 37.5534C40.2217 37.3089 40.4236 37.4259 40.615 37.5534C40.6256 37.5321 40.6469 37.5003 40.6576 37.479C40.7638 37.2983 40.6576 37.0857 40.4555 37.0431Z" fill="url(#paint6_linear_69_1816)"/>
<path d="M25.1153 26.1995C23.4993 27.0819 21.3413 28.3257 17.1953 26.5503C16.6319 26.3058 16.3448 26.5609 16.281 26.8586C16.8445 26.4972 17.7374 28.2831 21.2137 28.2831C25.2322 28.2831 25.8381 26.0719 26.274 26.8693C26.2421 26.3377 25.668 25.8912 25.1153 26.1995Z" fill="url(#paint7_linear_69_1816)"/>
<path d="M39.4351 30.165C39.4351 30.165 43.0496 30.165 44.3146 27.5604C44.389 27.401 44.4422 27.2202 44.4635 27.0396C44.4953 26.6781 44.2083 26.2635 43.5279 26.5506C39.3819 28.3152 37.2239 27.0714 35.608 26.1997C34.9808 25.8595 34.3322 26.4655 34.4705 27.0714C34.513 27.2522 34.5343 27.4329 34.6087 27.5924C35.8206 30.1863 39.4351 30.165 39.4351 30.165Z" fill="url(#paint8_radial_69_1816)"/>
<path d="M36.4584 19.5554C36.4796 18.6411 37.4896 18.099 39.1905 18.1415C40.6363 18.184 43.7936 19.0664 45.8986 21.9473C46.2919 22.4789 45.6541 22.7446 45.2713 22.3938C43.9637 21.2138 40.4024 19.6404 37.5853 19.8743C36.4477 19.9593 36.4584 19.5554 36.4584 19.5554Z" fill="url(#paint9_linear_69_1816)"/>
<path d="M35.5972 26.1995C37.2131 27.0819 39.3712 28.3257 43.5172 26.5503C44.0806 26.3058 44.3677 26.5609 44.4314 26.8586C43.868 26.4972 42.975 28.2831 39.4987 28.2831C35.4803 28.2831 34.8743 26.0719 34.4385 26.8693C34.4704 26.3377 35.0444 25.8912 35.5972 26.1995Z" fill="url(#paint10_linear_69_1816)"/>
<defs>
<radialGradient id="paint0_radial_69_1816" cx="0" cy="0" r="1" gradientUnits="userSpaceOnUse" gradientTransform="translate(25.8592 21.0934) scale(27.5731)">
<stop stop-color="#FFDF30"/>
<stop offset="1" stop-color="#FFB82E"/>
</radialGradient>
<radialGradient id="paint1_radial_69_1816" cx="0" cy="0" r="1" gradientUnits="userSpaceOnUse" gradientTransform="translate(25.8592 21.0934) scale(21.693)">
<stop stop-color="#FFE95F"/>
<stop offset="1" stop-color="#FFBB47" stop-opacity="0"/>
</radialGradient>
<radialGradient id="paint2_radial_69_1816" cx="0" cy="0" r="1" gradientUnits="userSpaceOnUse" gradientTransform="translate(17.904 36.0422) rotate(-2.7703) scale(9.61387 7.60702)">
<stop stop-color="#FF4C00"/>
<stop offset="0.1542" stop-color="#FF4C00"/>
<stop offset="0.1795" stop-color="#FF4C00"/>
<stop offset="0.3996" stop-color="#FA4C0B" stop-opacity="0.7318"/>
<stop offset="0.7799" stop-color="#EE4B27" stop-opacity="0.2683"/>
<stop offset="1" stop-color="#E64A3A" stop-opacity="0"/>
</radialGradient>
<radialGradient id="paint3_radial_69_1816" cx="0" cy="0" r="1" gradientUnits="userSpaceOnUse" gradientTransform="translate(42.7975 36.0423) rotate(-177.23) scale(9.61387 7.60702)">
<stop stop-color="#FF4C00"/>
<stop offset="0.1542" stop-color="#FF4C00"/>
<stop offset="0.1795" stop-color="#FF4C00"/>
<stop offset="0.3996" stop-color="#FA4C0B" stop-opacity="0.7318"/>
<stop offset="0.7799" stop-color="#EE4B27" stop-opacity="0.2683"/>
<stop offset="1" stop-color="#E64A3A" stop-opacity="0"/>
</radialGradient>
<radialGradient id="paint4_radial_69_1816" cx="0" cy="0" r="1" gradientUnits="userSpaceOnUse" gradientTransform="translate(21.2703 28.1247) rotate(-179.852) scale(3.88357 1.87349)">
<stop offset="0.00132565" stop-color="#7A4400"/>
<stop offset="1" stop-color="#643800"/>
</radialGradient>
<linearGradient id="paint5_linear_69_1816" x1="19.4617" y1="21.2176" x2="19.3933" y2="18.8102" gradientUnits="userSpaceOnUse">
<stop offset="0.00132565" stop-color="#3C2200"/>
<stop offset="1" stop-color="#7A4400"/>
</linearGradient>
<linearGradient id="paint6_linear_69_1816" x1="30.3562" y1="38.6574" x2="30.3562" y2="42.0696" gradientUnits="userSpaceOnUse">
<stop offset="0.00132565" stop-color="#3C2200"/>
<stop offset="1" stop-color="#512D00"/>
</linearGradient>
<linearGradient id="paint7_linear_69_1816" x1="16.2698" y1="27.1929" x2="26.2646" y2="27.1929" gradientUnits="userSpaceOnUse">
<stop offset="0.00132565" stop-color="#3C2200"/>
<stop offset="1" stop-color="#512D00"/>
</linearGradient>
<radialGradient id="paint8_radial_69_1816" cx="0" cy="0" r="1" gradientUnits="userSpaceOnUse" gradientTransform="translate(39.4355 28.1247) rotate(-0.147672) scale(3.88357 1.87349)">
<stop offset="0.00132565" stop-color="#7A4400"/>
<stop offset="1" stop-color="#643800"/>
</radialGradient>
<linearGradient id="paint9_linear_69_1816" x1="41.2449" y1="21.2177" x2="41.3133" y2="18.8103" gradientUnits="userSpaceOnUse">
<stop offset="0.00132565" stop-color="#3C2200"/>
<stop offset="1" stop-color="#7A4400"/>
</linearGradient>
<linearGradient id="paint10_linear_69_1816" x1="44.4426" y1="27.1929" x2="34.4479" y2="27.1929" gradientUnits="userSpaceOnUse">
<stop offset="0.00132565" stop-color="#3C2200"/>
<stop offset="1" stop-color="#512D00"/>
</linearGradient>
</defs>
</svg>
