<svg width="24" height="24" viewBox="0 0 24 24" fill="none" xmlns="http://www.w3.org/2000/svg">
<g clip-path="url(#clip0_69_2141)">
<path d="M21 2H3C2.73478 2 2.48043 2.10536 2.29289 2.29289C2.10536 2.48043 2 2.73478 2 3V21C2 21.2652 2.10536 21.5196 2.29289 21.7071C2.48043 21.8946 2.73478 22 3 22C3.26377 21.9962 3.51537 21.8884 3.7 21.7L7.6 18H21C21.2652 18 21.5196 17.8946 21.7071 17.7071C21.8946 17.5196 22 17.2652 22 17V3C22 2.73478 21.8946 2.48043 21.7071 2.29289C21.5196 2.10536 21.2652 2 21 2ZM12 15C11.8022 15 11.6089 14.9414 11.4444 14.8315C11.28 14.7216 11.1518 14.5654 11.0761 14.3827C11.0004 14.2 10.9806 13.9989 11.0192 13.8049C11.0578 13.6109 11.153 13.4327 11.2929 13.2929C11.4327 13.153 11.6109 13.0578 11.8049 13.0192C11.9989 12.9806 12.2 13.0004 12.3827 13.0761C12.5654 13.1518 12.7216 13.28 12.8315 13.4444C12.9414 13.6089 13 13.8022 13 14C13 14.2652 12.8946 14.5196 12.7071 14.7071C12.5196 14.8946 12.2652 15 12 15ZM13 11C13 11.2652 12.8946 11.5196 12.7071 11.7071C12.5196 11.8946 12.2652 12 12 12C11.7348 12 11.4804 11.8946 11.2929 11.7071C11.1054 11.5196 11 11.2652 11 11V6C11 5.73478 11.1054 5.48043 11.2929 5.29289C11.4804 5.10536 11.7348 5 12 5C12.2652 5 12.5196 5.10536 12.7071 5.29289C12.8946 5.48043 13 5.73478 13 6V11Z" fill="#8B9098"/>
</g>
<defs>
<clipPath id="clip0_69_2141">
<rect width="24" height="24" fill="white"/>
</clipPath>
</defs>
</svg>
