<svg width="60" height="60" viewBox="0 0 60 60" fill="none" xmlns="http://www.w3.org/2000/svg">
<path d="M30.0001 52.8571C42.6237 52.8571 52.8572 42.6236 52.8572 30C52.8572 17.3763 42.6237 7.14282 30.0001 7.14282C17.3764 7.14282 7.14294 17.3763 7.14294 30C7.14294 42.6236 17.3764 52.8571 30.0001 52.8571Z" fill="url(#paint0_radial_69_2334)"/>
<path opacity="0.5" d="M30.0001 52.8571C42.6237 52.8571 52.8572 42.6236 52.8572 30C52.8572 17.3763 42.6237 7.14282 30.0001 7.14282C17.3764 7.14282 7.14294 17.3763 7.14294 30C7.14294 42.6236 17.3764 52.8571 30.0001 52.8571Z" fill="url(#paint1_radial_69_2334)"/>
<path d="M24.9715 18.1571C24.9715 17.2428 23.9858 16.6714 22.2715 16.6714C20.8287 16.6714 17.643 17.4713 15.4572 20.2856C15.0573 20.7999 15.6715 21.0857 16.0715 20.7571C17.4144 19.6142 21.0287 18.1428 23.8429 18.4571C24.9715 18.5714 24.9715 18.1571 24.9715 18.1571Z" fill="url(#paint2_linear_69_2334)"/>
<path d="M22.5287 29.2572C23.7438 29.2572 24.7288 27.7669 24.7288 25.9287C24.7288 24.0903 23.7438 22.6001 22.5287 22.6001C21.3137 22.6001 20.3287 24.0903 20.3287 25.9287C20.3287 27.7669 21.3137 29.2572 22.5287 29.2572Z" fill="url(#paint3_radial_69_2334)"/>
<path d="M22.5287 23.7286C23.4716 23.7286 24.3001 24.5571 24.7288 25.7714C24.7002 23.9714 23.7287 22.5286 22.5287 22.5286C21.3287 22.5286 20.3573 23.9714 20.3287 25.7714C20.7573 24.5571 21.5859 23.7286 22.5287 23.7286Z" fill="url(#paint4_linear_69_2334)"/>
<path d="M35.0286 18.1571C35.0286 17.2428 36.0143 16.6714 37.7286 16.6714C39.1715 16.6714 42.3572 17.4713 44.5429 20.2856C44.9429 20.7999 44.3286 21.0857 43.9286 20.7571C42.5858 19.6142 38.9715 18.1428 36.1572 18.4571C35.0143 18.5714 35.0286 18.1571 35.0286 18.1571Z" fill="url(#paint5_linear_69_2334)"/>
<path d="M40.1 36.6857C39.9143 36.6571 39.7143 36.7143 39.5857 36.8428C37.1286 39.1428 33.3428 40.3857 30.4857 40.3857H30H29.5143C26.6572 40.3857 22.8714 39.1428 20.4142 36.8428C20.2714 36.7143 20.0857 36.6571 19.9 36.6857C19.7 36.7285 19.6 36.9428 19.7 37.1142C21.8 40.7428 25.6714 42.9857 29.8857 42.9857H30.0143H30.1429C34.3571 42.9857 38.2285 40.7428 40.3285 37.1142C40.4 36.9428 40.3 36.7285 40.1 36.6857Z" fill="#643800"/>
<path d="M37.4571 29.2572C38.6721 29.2572 39.6571 27.7669 39.6571 25.9287C39.6571 24.0903 38.6721 22.6001 37.4571 22.6001C36.2421 22.6001 35.2571 24.0903 35.2571 25.9287C35.2571 27.7669 36.2421 29.2572 37.4571 29.2572Z" fill="url(#paint6_radial_69_2334)"/>
<path d="M37.4571 23.7286C36.5142 23.7286 35.6857 24.5572 35.2571 25.7715C35.2857 23.9715 36.2571 22.5286 37.4571 22.5286C38.6571 22.5286 39.6285 23.9715 39.6571 25.7715C39.2286 24.5572 38.4 23.7286 37.4571 23.7286Z" fill="url(#paint7_linear_69_2334)"/>
<path d="M40.1 36.6857C39.9142 36.6571 39.7143 36.7143 39.5857 36.8428C37.1286 39.1428 33.3428 40.3857 30.4857 40.3857H30H29.5143C26.6572 40.3857 22.8714 39.1428 20.4142 36.8428C20.2714 36.7143 20.0857 36.6571 19.9 36.6857C19.7 36.7285 19.6 36.9428 19.7 37.1142C19.7143 37.1571 19.7428 37.1856 19.7714 37.2142C19.9714 37.1 20.1857 36.9857 20.4 37.2285C22.7286 39.8428 26.1857 41.4142 29.8857 41.4142H30.0142H30.1429C33.8714 41.4142 37.3429 39.8286 39.6714 37.1714C39.8857 36.9285 40.0857 37.0428 40.2714 37.1714C40.2857 37.1428 40.3 37.1286 40.3143 37.1C40.4 36.9428 40.3 36.7285 40.1 36.6857Z" fill="url(#paint8_linear_69_2334)"/>
<defs>
<radialGradient id="paint0_radial_69_2334" cx="0" cy="0" r="1" gradientUnits="userSpaceOnUse" gradientTransform="translate(25.4972 20.7367) scale(27.5742 27.5742)">
<stop stop-color="#FFE030"/>
<stop offset="1" stop-color="#FFB92E"/>
</radialGradient>
<radialGradient id="paint1_radial_69_2334" cx="0" cy="0" r="1" gradientUnits="userSpaceOnUse" gradientTransform="translate(25.4972 20.7367) scale(21.6938 21.6938)">
<stop stop-color="#FFEA5F"/>
<stop offset="1" stop-color="#FFBC47" stop-opacity="0"/>
</radialGradient>
<linearGradient id="paint2_linear_69_2334" x1="20.146" y1="19.6891" x2="20.146" y2="17.2806" gradientUnits="userSpaceOnUse">
<stop offset="0.00132565" stop-color="#3C2200"/>
<stop offset="1" stop-color="#7A4400"/>
</linearGradient>
<radialGradient id="paint3_radial_69_2334" cx="0" cy="0" r="1" gradientUnits="userSpaceOnUse" gradientTransform="translate(21.8718 26.0231) rotate(73.8539) scale(3.22955 2.08947)">
<stop offset="0.00132565" stop-color="#7A4400"/>
<stop offset="1" stop-color="#643800"/>
</radialGradient>
<linearGradient id="paint4_linear_69_2334" x1="22.5319" y1="22.5871" x2="22.5319" y2="25.6891" gradientUnits="userSpaceOnUse">
<stop offset="0.00132565" stop-color="#3C2200"/>
<stop offset="1" stop-color="#512D00"/>
</linearGradient>
<linearGradient id="paint5_linear_69_2334" x1="39.8428" y1="19.6891" x2="39.8428" y2="17.2806" gradientUnits="userSpaceOnUse">
<stop offset="0.00132565" stop-color="#3C2200"/>
<stop offset="1" stop-color="#7A4400"/>
</linearGradient>
<radialGradient id="paint6_radial_69_2334" cx="0" cy="0" r="1" gradientUnits="userSpaceOnUse" gradientTransform="translate(36.7974 26.0236) rotate(73.8539) scale(3.22955 2.08947)">
<stop offset="0.00132565" stop-color="#7A4400"/>
<stop offset="1" stop-color="#643800"/>
</radialGradient>
<linearGradient id="paint7_linear_69_2334" x1="37.4568" y1="22.5871" x2="37.4568" y2="25.6892" gradientUnits="userSpaceOnUse">
<stop offset="0.00132565" stop-color="#3C2200"/>
<stop offset="1" stop-color="#512D00"/>
</linearGradient>
<linearGradient id="paint8_linear_69_2334" x1="29.9944" y1="38.3013" x2="29.9944" y2="41.7136" gradientUnits="userSpaceOnUse">
<stop offset="0.00132565" stop-color="#3C2200"/>
<stop offset="1" stop-color="#512D00"/>
</linearGradient>
</defs>
</svg>
