<svg width="60" height="60" viewBox="0 0 60 60" fill="none" xmlns="http://www.w3.org/2000/svg">
<path d="M30 52.8571C42.6236 52.8571 52.8571 42.6236 52.8571 30C52.8571 17.3763 42.6236 7.14282 30 7.14282C17.3763 7.14282 7.14282 17.3763 7.14282 30C7.14282 42.6236 17.3763 52.8571 30 52.8571Z" fill="url(#paint0_radial_69_1781)"/>
<path opacity="0.5" d="M30 52.8571C42.6236 52.8571 52.8571 42.6236 52.8571 30C52.8571 17.3763 42.6236 7.14282 30 7.14282C17.3763 7.14282 7.14282 17.3763 7.14282 30C7.14282 42.6236 17.3763 52.8571 30 52.8571Z" fill="url(#paint1_radial_69_1781)"/>
<path d="M35.2427 27.9857C35.1284 29.8142 36.014 31.3714 37.2284 31.4428C38.4426 31.5143 39.5283 30.1 39.6426 28.2714C39.7569 26.4428 38.8712 24.8857 37.6569 24.8142C36.4427 24.7286 35.3569 26.1571 35.2427 27.9857Z" fill="url(#paint2_radial_69_1781)"/>
<path d="M37.5858 25.9285C36.643 25.8714 35.7716 26.6427 35.2572 27.8285C35.4001 26.0285 36.4715 24.657 37.6572 24.7285C38.8572 24.7999 39.7287 26.3142 39.643 28.1142C39.3001 26.8713 38.5287 25.9856 37.5858 25.9285Z" fill="url(#paint3_linear_69_1781)"/>
<path d="M20.357 27.0285C20.2428 28.857 21.1285 30.4142 22.3428 30.4857C23.557 30.5571 24.6427 29.1428 24.757 27.3142C24.8713 25.4856 23.9856 23.9285 22.7713 23.8571C21.557 23.7856 20.4713 25.1999 20.357 27.0285Z" fill="url(#paint4_radial_69_1781)"/>
<path d="M22.6859 25.0572C23.6288 25.1144 24.4003 25.9858 24.7574 27.2286C24.8431 25.4286 23.9716 23.9286 22.7716 23.8429C21.5716 23.7572 20.5145 25.1429 20.3716 26.9429C20.8717 25.7572 21.7431 24.9857 22.6859 25.0572Z" fill="url(#paint5_linear_69_1781)"/>
<path d="M25.8428 19.2001C25.0571 18.943 24.3143 17.9858 22.5428 17.2715C20.3285 16.3715 18.8143 16.8287 17.2715 17.9287C17.1286 18.0287 16.9715 18.1286 16.8 18.2429C16.4714 18.4572 16.3715 18.9287 16.5714 19.3144C16.6857 19.5572 17.2715 20.0144 17.8857 19.643C19.8143 18.4715 21.0428 18.8144 22.5 19.4001C23.6571 19.8715 24.4143 21.0001 25.9 20.8858C26.5 20.843 26.7714 20.543 26.8 20.1001C26.8429 19.5715 26.4143 19.3858 25.8428 19.2001Z" fill="url(#paint6_linear_69_1781)"/>
<path d="M35.3718 40.2284C35.2717 40.2284 35.186 40.1999 35.086 40.1713C35.0718 40.157 32.9146 39.3856 30.2718 38.8142C26.9003 38.0855 24.286 38.0141 22.7003 38.6141C22.186 38.8142 21.6003 38.5427 21.4146 38.0284C21.2146 37.5141 21.486 36.9284 22.0003 36.7427C26.6289 34.9998 35.4003 38.157 35.7717 38.2856C36.286 38.4713 36.5574 39.0427 36.3717 39.5713C36.2146 39.9856 35.8003 40.2427 35.3718 40.2284Z" fill="#643800"/>
<path d="M36.4285 39.257C36.4428 38.8284 36.1856 38.4284 35.7714 38.2856C35.3999 38.157 26.6285 34.9998 22 36.7427C21.5142 36.9284 21.2571 37.4284 21.3856 37.9141C23.5285 36.5427 26.9571 36.0141 36.4285 39.257Z" fill="url(#paint7_linear_69_1781)"/>
<path d="M30 52.8571C42.6236 52.8571 52.8571 42.6236 52.8571 30C52.8571 17.3763 42.6236 7.14282 30 7.14282C17.3763 7.14282 7.14282 17.3763 7.14282 30C7.14282 42.6236 17.3763 52.8571 30 52.8571Z" fill="url(#paint8_linear_69_1781)"/>
<path d="M34.0431 22.3715C33.7717 21.3716 34.6859 20.4716 36.5288 19.9715C38.1002 19.543 41.7716 19.4858 44.9716 21.8858C45.5574 22.3287 44.9716 22.8144 44.4431 22.5716C42.6574 21.7287 38.3145 21.2001 35.3574 22.343C34.1574 22.8144 34.0431 22.3715 34.0431 22.3715Z" fill="url(#paint9_linear_69_1781)"/>
<path d="M30 52.8571C42.6236 52.8571 52.8571 42.6236 52.8571 30C52.8571 17.3763 42.6236 7.14282 30 7.14282C17.3763 7.14282 7.14282 17.3763 7.14282 30C7.14282 42.6236 17.3763 52.8571 30 52.8571Z" fill="url(#paint10_radial_69_1781)"/>
<path d="M46.8715 35.8287C48.4143 36.7001 47.0858 39.6144 46.8572 41.2429C46.5 43.8 48.7429 48.2858 47.4857 52.3429C46.2286 56.4 44.6286 59.0715 37.4714 58.2C30.3143 57.3286 29.7572 55.5 30.0857 54.5001C30.3857 53.5715 31.0715 53.7286 31.0715 53.7286C31.0715 53.7286 29.6143 53.0143 29.8 51.4857C29.9858 49.9572 31.6286 50.1286 31.6286 50.1286C31.6286 50.1286 30.2858 49.6287 30.4857 47.9286C30.6857 46.2286 32.5286 46.4286 32.5286 46.4286C32.5286 46.4286 29.3858 44.5857 25.7714 42.6572C23.2143 41.3001 23.3714 40.5429 23.7714 40.0001C24.1715 39.4572 25.8 38.6429 29.5 40.7001C33.2 42.7572 38.5 44.3429 40.1286 44.3143C41.7572 44.2715 43.4286 43.4572 43.4 39.5715C43.3571 36.4287 45.6143 35.1144 46.8715 35.8287Z" fill="url(#paint11_linear_69_1781)"/>
<path d="M32.5001 46.4427C32.5001 46.4427 29.3572 44.5999 25.7429 42.6714C23.1858 41.3142 23.3429 40.557 23.743 40.0142C23.8144 39.9142 23.9429 39.7999 24.1144 39.7285C22.8572 41.9427 36.5715 46.2714 32.5001 46.4427Z" fill="url(#paint12_linear_69_1781)"/>
<path d="M40.1003 44.3144C41.7288 44.2715 43.4003 43.4573 43.3717 39.5715C43.3431 36.4144 45.6146 35.1144 46.8574 35.8144C46.9574 35.8715 47.0431 35.9287 47.1146 36.0001C45.2003 35.9287 44.1288 37.6715 44.086 39.9572C44.0431 42.2144 43.486 45.0858 39.5145 44.2858C39.7431 44.3144 39.9432 44.3287 40.1003 44.3144Z" fill="url(#paint13_radial_69_1781)"/>
<path d="M29.7715 51.6142C32.1144 52.3428 34.1858 53.9999 37.1572 54.3999C39.7858 54.757 44.5858 54.157 47.7001 51.4285C47.643 51.7285 47.5715 52.0285 47.4858 52.3428C46.2287 56.3999 44.6286 59.0713 37.4715 58.1999C30.3144 57.3285 29.7573 55.4999 30.0858 54.4999C30.3858 53.5714 31.0715 53.7285 31.0715 53.7285C31.0715 53.7285 29.6858 53.0428 29.7715 51.6142Z" fill="url(#paint14_linear_69_1781)"/>
<path d="M23.7142 40.0714C23.7286 40.0572 23.7428 40.0429 23.7428 40.0286C24.1428 39.4857 25.7714 38.6714 29.4714 40.7286C33.1714 42.7858 38.4714 44.3714 40.0999 44.3428C41.7286 44.3 43.3999 43.4857 43.3714 39.6C43.3714 38.6286 43.5714 37.8429 43.9 37.2286C44.7286 37.1428 45.3714 37.6 45.4428 39.3715C45.6428 44.0857 46.3285 48.7572 42.0857 48.5428C34.3428 48.1429 31.4571 42.0715 23.7142 40.0714Z" fill="url(#paint15_radial_69_1781)"/>
<path d="M31.6002 50.1287C31.6002 50.1287 32.3145 50.4144 33.0002 50.5287C32.5573 50.5001 31.5859 50.6144 30.9859 50.7001C30.7859 50.7287 30.6145 50.843 30.5145 51.0144C29.7574 52.3715 31.0431 53.7287 31.0431 53.7287C31.0431 53.7287 29.5859 53.0144 29.7716 51.4859C29.9573 49.9715 31.6002 50.1287 31.6002 50.1287Z" fill="url(#paint16_linear_69_1781)"/>
<path d="M30.0718 54.5001C30.3146 53.743 30.8289 53.7144 31.0003 53.7144L31.0575 53.7288C31.0575 53.7288 31.686 53.8287 32.3717 53.7288C31.8432 53.8573 31.2003 54.0716 30.9003 54.2287C30.4432 55.4859 32.1718 56.6145 36.786 57.3144C44.4146 58.4859 45.7717 54.6288 46.6003 52.0002C47.8146 48.2002 45.4432 44.543 46.1717 41.0001C46.486 39.4716 47.1432 37.1001 46.986 35.9001C48.3432 36.8573 47.1003 39.6573 46.8574 41.2287C46.4717 43.6716 48.7432 48.2716 47.486 52.3287C46.2289 56.3859 44.6289 59.0573 37.4717 58.1859C30.3003 57.3288 29.7432 55.5002 30.0718 54.5001Z" fill="url(#paint17_linear_69_1781)"/>
<path d="M32.3864 53.7286C32.372 53.7286 32.372 53.7286 32.3578 53.7286C32.4006 53.7144 32.4578 53.7 32.5006 53.6858L32.3864 53.7286Z" fill="url(#paint18_linear_69_1781)"/>
<path d="M31.9146 46.4715C31.9575 46.4572 32.0146 46.4572 32.0575 46.4572C32.0717 46.4572 32.086 46.4572 32.1146 46.4572C32.1432 46.4572 32.1718 46.4572 32.2003 46.4572C32.2146 46.4572 32.2289 46.4572 32.2432 46.4572C32.2717 46.4572 32.3003 46.4572 32.3289 46.4572C32.3432 46.4572 32.3575 46.4572 32.3718 46.4572C32.4003 46.4572 32.4146 46.4572 32.4289 46.4572C32.4432 46.4572 32.4432 46.4572 32.4574 46.4572C32.4718 46.4572 32.486 46.4572 32.486 46.4572H32.5003C32.5146 46.4572 32.5146 46.4572 32.5146 46.4572C32.5146 46.4572 32.386 46.3858 32.1432 46.2429C32.4432 45.8858 32.6003 45.543 32.6003 45.543L34.5004 46.7572C33.7861 46.4286 32.3575 46.6858 31.6861 46.8429C30.8003 47.7 31.0003 49.6572 31.6146 50.1429C31.6146 50.1429 30.2717 49.6429 30.4717 47.943C30.586 46.8715 31.3575 46.5572 31.9146 46.4715Z" fill="url(#paint19_linear_69_1781)"/>
<defs>
<radialGradient id="paint0_radial_69_1781" cx="0" cy="0" r="1" gradientUnits="userSpaceOnUse" gradientTransform="translate(34.4972 20.7367) rotate(180) scale(27.5742 27.5742)">
<stop stop-color="#FFE030"/>
<stop offset="1" stop-color="#FFB92E"/>
</radialGradient>
<radialGradient id="paint1_radial_69_1781" cx="0" cy="0" r="1" gradientUnits="userSpaceOnUse" gradientTransform="translate(34.4972 20.7367) rotate(180) scale(32.7271 32.7271)">
<stop stop-color="#FFEA5F"/>
<stop offset="1" stop-color="#FFBC47" stop-opacity="0"/>
</radialGradient>
<radialGradient id="paint2_radial_69_1781" cx="0" cy="0" r="1" gradientUnits="userSpaceOnUse" gradientTransform="translate(38.1067 28.2422) rotate(109.828) scale(3.22936 2.08934)">
<stop offset="0.00132565" stop-color="#7A4400"/>
<stop offset="1" stop-color="#643800"/>
</radialGradient>
<linearGradient id="paint3_linear_69_1781" x1="37.6879" y1="24.786" x2="37.4886" y2="27.8816" gradientUnits="userSpaceOnUse">
<stop offset="0.00132565" stop-color="#3C2200"/>
<stop offset="1" stop-color="#512D00"/>
</linearGradient>
<radialGradient id="paint4_radial_69_1781" cx="0" cy="0" r="1" gradientUnits="userSpaceOnUse" gradientTransform="translate(23.2126 27.283) rotate(109.828) scale(3.22936 2.08933)">
<stop offset="0.00132565" stop-color="#7A4400"/>
<stop offset="1" stop-color="#643800"/>
</radialGradient>
<linearGradient id="paint5_linear_69_1781" x1="22.7785" y1="23.9087" x2="22.5791" y2="27.0041" gradientUnits="userSpaceOnUse">
<stop offset="0.00132565" stop-color="#3C2200"/>
<stop offset="1" stop-color="#512D00"/>
</linearGradient>
<linearGradient id="paint6_linear_69_1781" x1="21.5681" y1="22.519" x2="21.711" y2="16.8047" gradientUnits="userSpaceOnUse">
<stop offset="0.00132565" stop-color="#3C2200"/>
<stop offset="1" stop-color="#7A4400"/>
</linearGradient>
<linearGradient id="paint7_linear_69_1781" x1="28.8065" y1="40.9511" x2="29.1246" y2="30.8569" gradientUnits="userSpaceOnUse">
<stop offset="0.00132565" stop-color="#3C2200"/>
<stop offset="1" stop-color="#512D00"/>
</linearGradient>
<linearGradient id="paint8_linear_69_1781" x1="29.8349" y1="26.7953" x2="31.0491" y2="50.3667" gradientUnits="userSpaceOnUse">
<stop offset="0.4938" stop-color="#FFBC47" stop-opacity="0"/>
<stop offset="1" stop-color="#FF8900"/>
</linearGradient>
<linearGradient id="paint9_linear_69_1781" x1="39.7148" y1="22.6162" x2="39.0117" y2="20.0108" gradientUnits="userSpaceOnUse">
<stop offset="0.00132565" stop-color="#3C2200"/>
<stop offset="1" stop-color="#7A4400"/>
</linearGradient>
<radialGradient id="paint10_radial_69_1781" cx="0" cy="0" r="1" gradientUnits="userSpaceOnUse" gradientTransform="translate(31.515 48.0225) scale(8.8443 8.8443)">
<stop offset="0.1836" stop-color="#FF8000" stop-opacity="0.75"/>
<stop offset="0.995" stop-color="#FF8000" stop-opacity="0"/>
</radialGradient>
<linearGradient id="paint11_linear_69_1781" x1="35.3515" y1="55.9429" x2="35.8184" y2="41.5974" gradientUnits="userSpaceOnUse">
<stop offset="0.00132565" stop-color="#FFCB4B"/>
<stop offset="1" stop-color="#FFD748"/>
</linearGradient>
<linearGradient id="paint12_linear_69_1781" x1="29.4162" y1="39.4105" x2="26.559" y2="50.4105" gradientUnits="userSpaceOnUse">
<stop stop-color="#FFBC47" stop-opacity="0"/>
<stop offset="1" stop-color="#FFA754"/>
</linearGradient>
<radialGradient id="paint13_radial_69_1781" cx="0" cy="0" r="1" gradientUnits="userSpaceOnUse" gradientTransform="translate(43.3502 40.0736) rotate(-173.079) scale(4.05627)">
<stop stop-color="#FFE85B"/>
<stop offset="1" stop-color="#FFE85B" stop-opacity="0"/>
</radialGradient>
<linearGradient id="paint14_linear_69_1781" x1="38.1609" y1="49.7885" x2="40.0904" y2="59.486" gradientUnits="userSpaceOnUse">
<stop offset="0.4938" stop-color="#FFBC47" stop-opacity="0"/>
<stop offset="1" stop-color="#FF8900"/>
</linearGradient>
<radialGradient id="paint15_radial_69_1781" cx="0" cy="0" r="1" gradientUnits="userSpaceOnUse" gradientTransform="translate(40.1921 45.358) rotate(-174.35) scale(7.21435 2.63325)">
<stop stop-color="#FFE85B"/>
<stop offset="1" stop-color="#FFE85B" stop-opacity="0"/>
</radialGradient>
<linearGradient id="paint16_linear_69_1781" x1="32.0071" y1="49.4818" x2="29.6142" y2="55.0532" gradientUnits="userSpaceOnUse">
<stop stop-color="#FFBC47" stop-opacity="0"/>
<stop offset="1" stop-color="#FFA754"/>
</linearGradient>
<linearGradient id="paint17_linear_69_1781" x1="37.4487" y1="42.4734" x2="44.163" y2="60.1878" gradientUnits="userSpaceOnUse">
<stop stop-color="#FFBC47" stop-opacity="0"/>
<stop offset="1" stop-color="#FFA754"/>
</linearGradient>
<linearGradient id="paint18_linear_69_1781" x1="27.0544" y1="50.1086" x2="41.4564" y2="59.8136" gradientUnits="userSpaceOnUse">
<stop stop-color="#FFBC47" stop-opacity="0"/>
<stop offset="1" stop-color="#FFA754"/>
</linearGradient>
<linearGradient id="paint19_linear_69_1781" x1="32.0602" y1="45.5841" x2="33.002" y2="50.3175" gradientUnits="userSpaceOnUse">
<stop stop-color="#FFBC47" stop-opacity="0"/>
<stop offset="1" stop-color="#FFA754"/>
</linearGradient>
</defs>
</svg>
