<svg width="20" height="20" viewBox="0 0 20 20" fill="none" xmlns="http://www.w3.org/2000/svg">
<path opacity="0.4" d="M13.3334 7.49156V16.9583C13.3334 18.1666 12.4667 18.6749 11.4084 18.0916L8.13336 16.2666C7.78336 16.0749 7.21668 16.0749 6.86668 16.2666L3.59169 18.0916C2.53335 18.6749 1.66669 18.1666 1.66669 16.9583V7.49156C1.66669 6.06656 2.83335 4.8999 4.25835 4.8999H10.7417C12.1667 4.8999 13.3334 6.06656 13.3334 7.49156Z" fill="#9F70D6"/>
<path d="M18.3334 4.25841V13.7251C18.3334 14.9334 17.4667 15.4417 16.4084 14.8584L13.3334 13.1417V7.49174C13.3334 6.06674 12.1667 4.90008 10.7417 4.90008H6.66669V4.25841C6.66669 2.83341 7.83335 1.66675 9.25835 1.66675H15.7417C17.1667 1.66675 18.3334 2.83341 18.3334 4.25841Z" fill="#9F70D6"/>
<path d="M9.16665 10.625H5.83331C5.49165 10.625 5.20831 10.3417 5.20831 10C5.20831 9.65833 5.49165 9.375 5.83331 9.375H9.16665C9.50831 9.375 9.79165 9.65833 9.79165 10C9.79165 10.3417 9.50831 10.625 9.16665 10.625Z" fill="#9F70D6"/>
</svg>
