<svg width="40" height="40" viewBox="0 0 40 40" fill="none" xmlns="http://www.w3.org/2000/svg">
<path d="M25.8975 19.1499C29.6582 19.1499 32.735 16.0887 32.735 12.3472C32.735 8.60565 29.6582 5.54443 25.8975 5.54443C25.7265 5.54443 25.5557 5.54443 25.3847 5.54443C26.4104 7.24512 27.094 9.28593 27.094 11.3268C27.094 14.2179 25.8975 16.9391 24.0172 18.9799C24.53 19.1499 25.2137 19.1499 25.8975 19.1499Z" fill="#4069B2"/>
<path d="M28.8035 22.7209H27.0941C29.6581 24.9318 31.3676 28.3333 31.3676 32.0746C31.3676 32.9251 31.1966 33.6053 31.0256 34.2856C33.2479 33.9454 34.6155 33.4353 35.4701 32.9251C36.3248 32.4148 36.6668 31.5644 36.6668 30.5441C36.6668 26.2924 33.077 22.7209 28.8035 22.7209Z" fill="#4069B2"/>
<path d="M15.641 19.1497C17.6923 19.1497 19.4016 18.4696 20.9401 17.1091C22.6495 15.7485 23.5041 13.5376 23.5041 11.3267C23.5041 9.62601 22.9913 7.92533 21.9658 6.73486C20.5981 4.69405 18.376 3.3335 15.641 3.3335C11.3675 3.3335 7.77771 6.90493 7.77771 11.1566C7.77771 15.5784 11.3675 19.1497 15.641 19.1497Z" fill="#4069B2"/>
<path d="M20.2564 23.2315C19.7437 23.2315 19.4017 23.0615 18.8889 23.0615H12.3932C7.43594 23.0615 3.33337 27.1432 3.33337 32.075C3.33337 33.2655 3.84619 34.1159 4.70089 34.7962C6.06842 35.6465 9.31627 36.6669 15.6411 36.6669C21.9659 36.6669 25.0427 35.6465 26.5812 34.7962C26.5812 34.7962 26.7522 34.6262 26.923 34.6262C27.6069 34.1159 28.1197 33.2655 28.1197 32.075C27.9487 27.6534 24.7009 23.9119 20.2564 23.2315Z" fill="#4069B2"/>
</svg>
