<svg width="24" height="24" viewBox="0 0 24 24" fill="none" xmlns="http://www.w3.org/2000/svg">
<g clip-path="url(#clip0_69_2113)">
<path d="M1.5 18.6799H8.18C8.68165 18.6799 9.17839 18.7787 9.64185 18.9707C10.1053 19.1627 10.5264 19.4441 10.8811 19.7988C11.2359 20.1535 11.5172 20.5746 11.7092 21.0381C11.9012 21.5015 12 21.9983 12 22.4999H1.5V18.6799Z" stroke="#071C43" stroke-width="2" stroke-miterlimit="10"/>
<path d="M15.82 18.6799H22.5V22.4999H12C12 21.4868 12.4025 20.5152 13.1189 19.7988C13.8352 19.0824 14.8069 18.6799 15.82 18.6799Z" stroke="#071C43" stroke-width="2" stroke-miterlimit="10"/>
<path d="M1.5 6.27002H8.18C8.68165 6.27002 9.17839 6.36883 9.64185 6.5608C10.1053 6.75277 10.5264 7.03415 10.8811 7.38887C11.2359 7.74359 11.5172 8.1647 11.7092 8.62817C11.9012 9.09163 12 9.58837 12 10.09V22.5H1.5V6.27002Z" stroke="#071C43" stroke-width="2" stroke-miterlimit="10"/>
<path d="M19.64 6.27002H22.5V22.5H12V10.09C12 9.07689 12.4025 8.10526 13.1189 7.38887C13.8352 6.67248 14.8069 6.27002 15.82 6.27002" stroke="#071C43" stroke-width="2" stroke-miterlimit="10"/>
<path d="M19.64 13L17.73 14.91L15.82 13V3.41003C15.8186 3.15883 15.8671 2.90987 15.9627 2.67754C16.0582 2.44521 16.1988 2.23412 16.3764 2.0565C16.5541 1.87887 16.7652 1.73823 16.9975 1.64272C17.2298 1.5472 17.4788 1.4987 17.73 1.50003C18.2365 1.50003 18.7224 1.70126 19.0805 2.05945C19.4387 2.41765 19.64 2.90346 19.64 3.41003V13Z" stroke="#071C43" stroke-width="2" stroke-miterlimit="10"/>
</g>
<defs>
<clipPath id="clip0_69_2113">
<rect width="24" height="24" fill="white"/>
</clipPath>
</defs>
</svg>
